<svg xmlns="http://www.w3.org/2000/svg" xmlns:xlink="http://www.w3.org/1999/xlink" viewBox="0 0 564.61 405.09" width="406" height="306" class="illustration styles_illustrationTablet__1DWOa"><defs><linearGradient id="linear-gradient" x1="543.16" y1="268.07" x2="484.14" y2="352.83" gradientUnits="userSpaceOnUse"><stop offset="0" stop-color="#010101" stop-opacity="0"></stop><stop offset="0.95" stop-color="#010101"></stop></linearGradient><linearGradient id="linear-gradient-2" x1="529.83" y1="282.4" x2="493.89" y2="344.08" xlink:href="#linear-gradient"></linearGradient><linearGradient id="linear-gradient-3" x1="134.52" y1="224.17" x2="237.59" y2="303.56" xlink:href="#linear-gradient"></linearGradient><linearGradient id="linear-gradient-4" x1="123.82" y1="220.94" x2="135.82" y2="197.41" xlink:href="#linear-gradient"></linearGradient><linearGradient id="linear-gradient-5" x1="116.83" y1="198.29" x2="198.7" y2="243.91" xlink:href="#linear-gradient"></linearGradient><linearGradient id="linear-gradient-6" x1="108.42" y1="213.38" x2="190.29" y2="258.99" xlink:href="#linear-gradient"></linearGradient><linearGradient id="linear-gradient-7" x1="115.16" y1="176.76" x2="121.4" y2="536.89" xlink:href="#linear-gradient"></linearGradient><linearGradient id="linear-gradient-8" x1="136.63" y1="196.18" x2="332.17" y2="173.23" gradientUnits="userSpaceOnUse"><stop offset="0" stop-color="#fff" stop-opacity="0"></stop><stop offset="0.07" stop-color="#fff" stop-opacity="0.22"></stop><stop offset="0.16" stop-color="#fff" stop-opacity="0.45"></stop><stop offset="0.25" stop-color="#fff" stop-opacity="0.65"></stop><stop offset="0.33" stop-color="#fff" stop-opacity="0.8"></stop><stop offset="0.4" stop-color="#fff" stop-opacity="0.91"></stop><stop offset="0.46" stop-color="#fff" stop-opacity="0.98"></stop><stop offset="0.51" stop-color="#fff"></stop></linearGradient><linearGradient id="linear-gradient-9" x1="176.94" y1="190.75" x2="402.41" y2="194.85" xlink:href="#linear-gradient"></linearGradient><linearGradient id="linear-gradient-10" x1="174.28" y1="125.07" x2="190.68" y2="89.2" xlink:href="#linear-gradient-8"></linearGradient><linearGradient id="linear-gradient-11" x1="173.25" y1="115.85" x2="202.35" y2="81.62" xlink:href="#linear-gradient-8"></linearGradient><linearGradient id="linear-gradient-12" x1="209.56" y1="108.78" x2="183.94" y2="142.6" xlink:href="#linear-gradient"></linearGradient><linearGradient id="linear-gradient-13" x1="205.97" y1="99.48" x2="187.53" y2="136.99" xlink:href="#linear-gradient"></linearGradient><linearGradient id="linear-gradient-14" x1="202.49" y1="88.22" x2="163.55" y2="154.63" xlink:href="#linear-gradient"></linearGradient><linearGradient id="linear-gradient-15" x1="258.93" y1="257.15" x2="257.97" y2="434.18" xlink:href="#linear-gradient"></linearGradient><linearGradient id="linear-gradient-16" x1="234.13" y1="193.1" x2="238.93" y2="301.62" xlink:href="#linear-gradient"></linearGradient><linearGradient id="linear-gradient-17" x1="278.48" y1="191.14" x2="283.28" y2="299.66" xlink:href="#linear-gradient"></linearGradient><linearGradient id="linear-gradient-18" x1="282.97" y1="190.94" x2="287.78" y2="299.46" xlink:href="#linear-gradient"></linearGradient><linearGradient id="linear-gradient-19" x1="331.04" y1="234.91" x2="263.82" y2="235.15" xlink:href="#linear-gradient"></linearGradient><linearGradient id="linear-gradient-20" x1="256.38" y1="186.03" x2="258.3" y2="319.04" xlink:href="#linear-gradient-8"></linearGradient><linearGradient id="linear-gradient-21" x1="233.57" y1="193.12" x2="238.37" y2="301.64" xlink:href="#linear-gradient"></linearGradient><linearGradient id="linear-gradient-22" x1="256.29" y1="192.12" x2="261.09" y2="300.64" xlink:href="#linear-gradient"></linearGradient><linearGradient id="linear-gradient-23" x1="359.29" y1="176.33" x2="360.73" y2="263.24" xlink:href="#linear-gradient"></linearGradient><linearGradient id="linear-gradient-24" x1="386.4" y1="172.67" x2="387.92" y2="264.27" xlink:href="#linear-gradient"></linearGradient><linearGradient id="linear-gradient-25" x1="360.75" y1="265.76" x2="360.02" y2="393.49" xlink:href="#linear-gradient"></linearGradient><linearGradient id="linear-gradient-26" x1="442.67" y1="237.3" x2="288.06" y2="226.26" xlink:href="#linear-gradient"></linearGradient><linearGradient id="linear-gradient-28" x1="358.21" y1="184.56" x2="360.13" y2="317.57" xlink:href="#linear-gradient-8"></linearGradient><linearGradient id="linear-gradient-34" x1="335.78" y1="188.6" x2="340.58" y2="297.12" xlink:href="#linear-gradient"></linearGradient><linearGradient id="linear-gradient-35" x1="380.12" y1="186.64" x2="384.93" y2="295.16" xlink:href="#linear-gradient"></linearGradient><linearGradient id="linear-gradient-36" x1="356.98" y1="188.63" x2="361.79" y2="297.15" xlink:href="#linear-gradient"></linearGradient><linearGradient id="linear-gradient-37" x1="355.96" y1="167.88" x2="376.37" y2="233.18" xlink:href="#linear-gradient-8"></linearGradient><linearGradient id="linear-gradient-38" x1="339.16" y1="180.24" x2="337.96" y2="246.99" xlink:href="#linear-gradient"></linearGradient><linearGradient id="linear-gradient-39" x1="434.59" y1="213.53" x2="482.17" y2="213.53" xlink:href="#linear-gradient-8"></linearGradient><linearGradient id="linear-gradient-40" x1="457.93" y1="268.28" x2="633.2" y2="267.79" gradientTransform="translate(982.64 536.37) rotate(-180)" xlink:href="#linear-gradient"></linearGradient><linearGradient id="linear-gradient-41" x1="487.83" y1="194.68" x2="507.03" y2="267.67" gradientTransform="translate(984.16 421.7) rotate(-180)" xlink:href="#linear-gradient"></linearGradient><linearGradient id="linear-gradient-42" x1="434.57" y1="216.88" x2="498.29" y2="216.88" gradientUnits="userSpaceOnUse"><stop offset="0" stop-color="#0092ce"></stop><stop offset="1" stop-color="#009c61"></stop></linearGradient><linearGradient id="linear-gradient-43" x1="140.84" y1="215.54" x2="144.44" y2="272.92" xlink:href="#linear-gradient"></linearGradient><linearGradient id="linear-gradient-44" x1="65.68" y1="229.67" x2="64.72" y2="290.42" xlink:href="#linear-gradient"></linearGradient><linearGradient id="linear-gradient-45" x1="75.42" y1="240.18" x2="75.9" y2="291.08" xlink:href="#linear-gradient"></linearGradient><linearGradient id="linear-gradient-46" x1="61.91" y1="223.66" x2="63.83" y2="254.87" xlink:href="#linear-gradient-8"></linearGradient><linearGradient id="linear-gradient-47" x1="74.99" y1="216.29" x2="75.27" y2="244.91" xlink:href="#linear-gradient"></linearGradient><linearGradient id="linear-gradient-48" x1="60.02" y1="216.29" x2="60.29" y2="244.91" xlink:href="#linear-gradient"></linearGradient><linearGradient id="linear-gradient-49" x1="45.05" y1="216.29" x2="45.32" y2="244.91" xlink:href="#linear-gradient"></linearGradient><linearGradient id="linear-gradient-50" x1="285.56" y1="286.47" x2="293.24" y2="785.85" xlink:href="#linear-gradient"></linearGradient><linearGradient id="linear-gradient-51" x1="134.99" y1="275.4" x2="139.79" y2="506.84" xlink:href="#linear-gradient-8"></linearGradient><linearGradient id="linear-gradient-52" x1="417.91" y1="274.6" x2="423.67" y2="492.6" xlink:href="#linear-gradient-8"></linearGradient></defs><title>City Building 3</title><g style="isolation: isolate;"><g id="Layer_1" data-name="Layer 1"><path d="M565.58,252.53c0,1.19-.07,2.35-.1,3.51q-.53,24.91-1.06,49.8c-.07,4.4-.21,8.8-.55,13.16a68.93,68.93,0,0,1-3.51,18c-3.75,10.44-11,19.34-19.14,26.84-31.85,29.34-75,37.69-114.12,53.52-4.23,1.71-8.39,3.48-12.49,5.39-6.68,3.14-13.4,6.28-20.19,9.31-31.48,14.22-64,26.71-99,27.63-36.91,1-69.28-15.93-107.79-12.14-33.08,3.2-67.74,9.27-98.57-3.11-14.73-5.9-27-15.38-37.35-27.08-2.86-3.21-5.56-6.62-8.12-10.13-13.84-19-23.6-42-30.8-64.5C10.29,335,8,327.05,6.2,319c-.1-.51-.24-1-.34-1.53C-.93,287.38-2,256,12.82,229.6s42.87-42.36,66.24-61.87c24.28-20.26,44.2-45.19,67.19-66.92S196.66,60,228,55.69c66.82-9.18,120.81,45.36,182.24,60.85,15.18,3.82,31,2.52,45.57,6.44,13.23,3.55,27.56,11.84,40,17.67,26.09,12.21,53.21,27.53,63.61,56.18a81.94,81.94,0,0,1,2.7,9,122.62,122.62,0,0,1,3.1,20.87C565.82,235.27,565.75,243.93,565.58,252.53Z" transform="translate(-1.09 -54.65)" fill="#68e1fd" opacity="0.24" style="isolation: isolate;"></path><path d="M526.65,305.36c-.52-3-2.39-5.57-4.07-8.12a28,28,0,0,1-4.27-8.93,12,12,0,0,1,1.46-9.55c.8-1.15,1.85-2.1,2.59-3.28,1.54-2.46,1.55-5.57,1.11-8.44s-1.27-5.69-1.23-8.59a14.55,14.55,0,0,1,4.81-10.5c2.15-1.91,5.59-3.09,7.83-1.27a5.71,5.71,0,0,1,1.77,4.43,42.54,42.54,0,0,1-.59,4.9,18.55,18.55,0,0,0,.64,7.41c.89,3,2.57,6,2.26,9.11-.22,2.12-1.33,4-2.16,6s-1.4,4.25-.51,6.19c1.13,2.46,4.19,3.51,5.56,5.85s.79,5-.13,7.39-2.24,4.66-2.51,7.2c-.25,2.3.39,4.59.67,6.89s.14,4.85-1.38,6.59c-2.08,2.39-5.75,2.3-8.91,2-3.62-.32-4.6-1.82-3.62-5.06A23.58,23.58,0,0,0,526.65,305.36Z" transform="translate(-1.09 -54.65)" fill="#68e1fd"></path><path d="M526.65,305.36c-.52-3-2.39-5.57-4.07-8.12a28,28,0,0,1-4.27-8.93,12,12,0,0,1,1.46-9.55c.8-1.15,1.85-2.1,2.59-3.28,1.54-2.46,1.55-5.57,1.11-8.44s-1.27-5.69-1.23-8.59a14.55,14.55,0,0,1,4.81-10.5c2.15-1.91,5.59-3.09,7.83-1.27a5.71,5.71,0,0,1,1.77,4.43,42.54,42.54,0,0,1-.59,4.9,18.55,18.55,0,0,0,.64,7.41c.89,3,2.57,6,2.26,9.11-.22,2.12-1.33,4-2.16,6s-1.4,4.25-.51,6.19c1.13,2.46,4.19,3.51,5.56,5.85s.79,5-.13,7.39-2.24,4.66-2.51,7.2c-.25,2.3.39,4.59.67,6.89s.14,4.85-1.38,6.59c-2.08,2.39-5.75,2.3-8.91,2-3.62-.32-4.6-1.82-3.62-5.06A23.58,23.58,0,0,0,526.65,305.36Z" transform="translate(-1.09 -54.65)" fill="url(#linear-gradient)"></path><path d="M525.38,317.51c-1.63-2.58-4.34-4.23-6.87-5.94a27.75,27.75,0,0,1-7.37-6.61,12.06,12.06,0,0,1-2.32-9.38c.3-1.36.91-2.65,1.14-4,.48-2.85-.72-5.73-2.22-8.21s-3.36-4.77-4.43-7.46a14.57,14.57,0,0,1,.41-11.54c1.25-2.6,4-5,6.74-4.18a5.65,5.65,0,0,1,3.34,3.42,40.06,40.06,0,0,1,1.33,4.74,18.78,18.78,0,0,0,3.44,6.6c2,2.45,4.67,4.52,5.58,7.54.62,2.05.32,4.23.3,6.36s.34,4.47,1.91,5.91c2,1.85,5.21,1.64,7.38,3.27s2.65,4.33,2.72,6.88-.28,5.16.44,7.61c.65,2.22,2.12,4.09,3.27,6.11s2,4.42,1.25,6.61c-1,3-4.43,4.33-7.46,5.28-3.46,1.09-5,.08-5.28-3.29A23.45,23.45,0,0,0,525.38,317.51Z" transform="translate(-1.09 -54.65)" fill="#68e1fd"></path><path d="M525.38,317.51c-1.63-2.58-4.34-4.23-6.87-5.94a27.75,27.75,0,0,1-7.37-6.61,12.06,12.06,0,0,1-2.32-9.38c.3-1.36.91-2.65,1.14-4,.48-2.85-.72-5.73-2.22-8.21s-3.36-4.77-4.43-7.46a14.57,14.57,0,0,1,.41-11.54c1.25-2.6,4-5,6.74-4.18a5.65,5.65,0,0,1,3.34,3.42,40.06,40.06,0,0,1,1.33,4.74,18.78,18.78,0,0,0,3.44,6.6c2,2.45,4.67,4.52,5.58,7.54.62,2.05.32,4.23.3,6.36s.34,4.47,1.91,5.91c2,1.85,5.21,1.64,7.38,3.27s2.65,4.33,2.72,6.88-.28,5.16.44,7.61c.65,2.22,2.12,4.09,3.27,6.11s2,4.42,1.25,6.61c-1,3-4.43,4.33-7.46,5.28-3.46,1.09-5,.08-5.28-3.29A23.45,23.45,0,0,0,525.38,317.51Z" transform="translate(-1.09 -54.65)" fill="url(#linear-gradient-2)"></path><polygon points="110.57 264.49 169 264.49 169 210.16 151.91 210.16 151.91 223.06 140.87 223.06 131.63 204.34 121.31 209.74 121.31 217.97 110.57 223.91 110.57 264.49" fill="#68e1fd"></polygon><polygon points="122.08 264.49 181.12 264.49 181.12 210.16 164.03 210.16 164.03 223.06 143.75 223.06 143.75 204.34 133.43 209.74 133.43 217.97 122.08 223.91 122.08 264.49" fill="#68e1fd"></polygon><polygon points="122.08 264.49 181.12 264.49 181.12 210.16 164.03 210.16 164.03 223.06 143.75 223.06 143.75 204.34 133.43 209.74 133.43 217.97 122.08 223.91 122.08 264.49" fill="url(#linear-gradient-3)"></polygon><polygon points="143.75 204.34 131.63 204.34 121.31 209.74 133.43 209.74 143.75 204.34" fill="#68e1fd"></polygon><rect x="121.39" y="209.7" width="12.12" height="8.23" fill="url(#linear-gradient-4)"></rect><polygon points="121.31 217.97 133.43 217.97 122.08 223.91 110.57 223.91 121.31 217.97" fill="#68e1fd"></polygon><polygon points="143.75 204.34 131.63 204.34 121.31 209.74 133.43 209.74 143.75 204.34" fill="url(#linear-gradient-5)"></polygon><polygon points="121.31 217.97 133.43 217.97 122.08 223.91 110.57 223.91 121.31 217.97" fill="url(#linear-gradient-6)"></polygon><rect x="110.57" y="223.91" width="11.51" height="40.58" fill="url(#linear-gradient-7)"></rect><rect x="156.04" y="117.76" width="43.93" height="147.13" fill="#68e1fd"></rect><rect x="156.04" y="117.76" width="43.93" height="147.13" opacity="0.65" fill="url(#linear-gradient-8)"></rect><rect x="199.97" y="117.76" width="17.61" height="147.13" fill="#68e1fd"></rect><rect x="199.97" y="117.76" width="17.61" height="147.13" fill="url(#linear-gradient-9)"></rect><rect x="160.78" y="110.7" width="36.92" height="7.06" fill="#68e1fd"></rect><rect x="160.78" y="110.7" width="36.92" height="7.06" opacity="0.65" fill="url(#linear-gradient-10)"></rect><rect x="197.43" y="110.7" width="15.99" height="7.06" fill="#68e1fd"></rect><rect x="165.42" y="103.64" width="30.4" height="7.06" fill="#68e1fd"></rect><rect x="165.42" y="103.64" width="30.4" height="7.06" opacity="0.65" fill="url(#linear-gradient-11)"></rect><rect x="195.6" y="103.64" width="13.17" height="7.06" fill="#68e1fd"></rect><polygon points="188.49 126.28 195.46 126.28 195.46 134.97 188.49 134.97 188.49 126.28 188.49 126.28" fill="#68e1fd" fill-rule="evenodd"></polygon><polygon points="188.49 126.28 190.31 126.28 190.31 134.97 188.49 134.97 188.49 126.28 188.49 126.28" fill="#68e1fd" fill-rule="evenodd"></polygon><polygon points="188.49 137.02 195.46 137.02 195.46 145.71 188.49 145.71 188.49 137.02 188.49 137.02" fill="#68e1fd" fill-rule="evenodd"></polygon><polygon points="188.49 137.02 190.31 137.02 190.31 145.71 188.49 145.71 188.49 137.02 188.49 137.02" fill="#68e1fd" fill-rule="evenodd"></polygon><polygon points="188.32 147.75 195.29 147.75 195.29 156.44 188.32 156.44 188.32 147.75 188.32 147.75" fill="#68e1fd" fill-rule="evenodd"></polygon><polygon points="188.32 147.75 190.14 147.75 190.14 156.44 188.32 156.44 188.32 147.75 188.32 147.75" fill="#68e1fd" fill-rule="evenodd"></polygon><polygon points="188.49 159.28 195.46 159.28 195.46 167.97 188.49 167.97 188.49 159.28 188.49 159.28" fill="#68e1fd" fill-rule="evenodd"></polygon><polygon points="188.49 159.28 190.31 159.28 190.31 167.97 188.49 167.97 188.49 159.28 188.49 159.28" fill="#68e1fd" fill-rule="evenodd"></polygon><polygon points="188.49 170.02 195.46 170.02 195.46 178.71 188.49 178.71 188.49 170.02 188.49 170.02" fill="#68e1fd" fill-rule="evenodd"></polygon><polygon points="188.49 170.02 190.31 170.02 190.31 178.71 188.49 178.71 188.49 170.02 188.49 170.02" fill="#68e1fd" fill-rule="evenodd"></polygon><polygon points="188.32 180.76 195.29 180.76 195.29 189.44 188.32 189.44 188.32 180.76 188.32 180.76" fill="#68e1fd" fill-rule="evenodd"></polygon><polygon points="188.32 180.76 190.14 180.76 190.14 189.44 188.32 189.44 188.32 180.76 188.32 180.76" fill="#68e1fd" fill-rule="evenodd"></polygon><polygon points="160.1 126.28 167.07 126.28 167.07 134.97 160.1 134.97 160.1 126.28 160.1 126.28" fill="#68e1fd" fill-rule="evenodd"></polygon><polygon points="160.1 126.28 161.92 126.28 161.92 134.97 160.1 134.97 160.1 126.28 160.1 126.28" fill="#68e1fd" fill-rule="evenodd"></polygon><polygon points="160.1 137.02 167.07 137.02 167.07 145.71 160.1 145.71 160.1 137.02 160.1 137.02" fill="#68e1fd" fill-rule="evenodd"></polygon><polygon points="160.1 137.02 161.92 137.02 161.92 145.71 160.1 145.71 160.1 137.02 160.1 137.02" fill="#68e1fd" fill-rule="evenodd"></polygon><polygon points="160.1 147.75 167.07 147.75 167.07 156.44 160.1 156.44 160.1 147.75 160.1 147.75" fill="#68e1fd" fill-rule="evenodd"></polygon><polygon points="160.1 147.75 161.92 147.75 161.92 156.44 160.1 156.44 160.1 147.75 160.1 147.75" fill="#68e1fd" fill-rule="evenodd"></polygon><polygon points="160.1 159.28 167.07 159.28 167.07 167.97 160.1 167.97 160.1 159.28 160.1 159.28" fill="#68e1fd" fill-rule="evenodd"></polygon><polygon points="160.1 159.28 161.92 159.28 161.92 167.97 160.1 167.97 160.1 159.28 160.1 159.28" fill="#68e1fd" fill-rule="evenodd"></polygon><polygon points="160.1 170.02 167.07 170.02 167.07 178.71 160.1 178.71 160.1 170.02 160.1 170.02" fill="#68e1fd" fill-rule="evenodd"></polygon><polygon points="160.1 170.02 161.92 170.02 161.92 178.71 160.1 178.71 160.1 170.02 160.1 170.02" fill="#68e1fd" fill-rule="evenodd"></polygon><polygon points="160.1 180.76 167.07 180.76 167.07 189.44 160.1 189.44 160.1 180.76 160.1 180.76" fill="#68e1fd" fill-rule="evenodd"></polygon><polygon points="160.1 180.76 161.92 180.76 161.92 189.44 160.1 189.44 160.1 180.76 160.1 180.76" fill="#68e1fd" fill-rule="evenodd"></polygon><polygon points="160.1 192.28 167.07 192.28 167.07 200.97 160.1 200.97 160.1 192.28 160.1 192.28" fill="#68e1fd" fill-rule="evenodd"></polygon><polygon points="160.1 192.28 161.92 192.28 161.92 200.97 160.1 200.97 160.1 192.28 160.1 192.28" fill="#68e1fd" fill-rule="evenodd"></polygon><polygon points="160.1 203.02 167.07 203.02 167.07 211.71 160.1 211.71 160.1 203.02 160.1 203.02" fill="#68e1fd" fill-rule="evenodd"></polygon><polygon points="160.1 203.02 161.92 203.02 161.92 211.71 160.1 211.71 160.1 203.02 160.1 203.02" fill="#68e1fd" fill-rule="evenodd"></polygon><polygon points="160.1 213.76 167.07 213.76 167.07 222.45 160.1 222.45 160.1 213.76 160.1 213.76" fill="#68e1fd" fill-rule="evenodd"></polygon><polygon points="160.1 213.76 161.92 213.76 161.92 222.45 160.1 222.45 160.1 213.76 160.1 213.76" fill="#68e1fd" fill-rule="evenodd"></polygon><polygon points="169.43 126.28 176.4 126.28 176.4 134.97 169.43 134.97 169.43 126.28 169.43 126.28" fill="#68e1fd" fill-rule="evenodd"></polygon><polygon points="169.43 126.28 171.25 126.28 171.25 134.97 169.43 134.97 169.43 126.28 169.43 126.28" fill="#68e1fd" fill-rule="evenodd"></polygon><polygon points="169.43 137.02 176.4 137.02 176.4 145.71 169.43 145.71 169.43 137.02 169.43 137.02" fill="#68e1fd" fill-rule="evenodd"></polygon><polygon points="169.43 137.02 171.25 137.02 171.25 145.71 169.43 145.71 169.43 137.02 169.43 137.02" fill="#68e1fd" fill-rule="evenodd"></polygon><polygon points="169.43 147.75 176.4 147.75 176.4 156.44 169.43 156.44 169.43 147.75 169.43 147.75" fill="#68e1fd" fill-rule="evenodd"></polygon><polygon points="169.43 147.75 171.25 147.75 171.25 156.44 169.43 156.44 169.43 147.75 169.43 147.75" fill="#68e1fd" fill-rule="evenodd"></polygon><polygon points="169.43 159.28 176.4 159.28 176.4 167.97 169.43 167.97 169.43 159.28 169.43 159.28" fill="#68e1fd" fill-rule="evenodd"></polygon><polygon points="169.43 159.28 171.25 159.28 171.25 167.97 169.43 167.97 169.43 159.28 169.43 159.28" fill="#68e1fd" fill-rule="evenodd"></polygon><polygon points="169.43 170.02 176.4 170.02 176.4 178.71 169.43 178.71 169.43 170.02 169.43 170.02" fill="#68e1fd" fill-rule="evenodd"></polygon><polygon points="169.43 170.02 171.25 170.02 171.25 178.71 169.43 178.71 169.43 170.02 169.43 170.02" fill="#68e1fd" fill-rule="evenodd"></polygon><polygon points="169.43 180.76 176.4 180.76 176.4 189.44 169.43 189.44 169.43 180.76 169.43 180.76" fill="#68e1fd" fill-rule="evenodd"></polygon><polygon points="169.43 180.76 171.25 180.76 171.25 189.44 169.43 189.44 169.43 180.76 169.43 180.76" fill="#68e1fd" fill-rule="evenodd"></polygon><polygon points="169.43 192.28 176.4 192.28 176.4 200.97 169.43 200.97 169.43 192.28 169.43 192.28" fill="#68e1fd" fill-rule="evenodd"></polygon><polygon points="169.43 192.28 171.25 192.28 171.25 200.97 169.43 200.97 169.43 192.28 169.43 192.28" fill="#68e1fd" fill-rule="evenodd"></polygon><polygon points="169.43 203.02 176.4 203.02 176.4 211.71 169.43 211.71 169.43 203.02 169.43 203.02" fill="#68e1fd" fill-rule="evenodd"></polygon><polygon points="169.43 203.02 171.25 203.02 171.25 211.71 169.43 211.71 169.43 203.02 169.43 203.02" fill="#68e1fd" fill-rule="evenodd"></polygon><polygon points="169.43 213.76 176.4 213.76 176.4 222.45 169.43 222.45 169.43 213.76 169.43 213.76" fill="#68e1fd" fill-rule="evenodd"></polygon><polygon points="169.43 213.76 171.25 213.76 171.25 222.45 169.43 222.45 169.43 213.76 169.43 213.76" fill="#68e1fd" fill-rule="evenodd"></polygon><polygon points="178.75 126.28 185.72 126.28 185.72 134.97 178.75 134.97 178.75 126.28 178.75 126.28" fill="#68e1fd" fill-rule="evenodd"></polygon><polygon points="178.75 126.28 180.57 126.28 180.57 134.97 178.75 134.97 178.75 126.28 178.75 126.28" fill="#68e1fd" fill-rule="evenodd"></polygon><polygon points="178.75 137.02 185.72 137.02 185.72 145.71 178.75 145.71 178.75 137.02 178.75 137.02" fill="#68e1fd" fill-rule="evenodd"></polygon><polygon points="178.75 137.02 180.57 137.02 180.57 145.71 178.75 145.71 178.75 137.02 178.75 137.02" fill="#68e1fd" fill-rule="evenodd"></polygon><polygon points="178.75 147.75 185.72 147.75 185.72 156.44 178.75 156.44 178.75 147.75 178.75 147.75" fill="#68e1fd" fill-rule="evenodd"></polygon><polygon points="178.75 147.75 180.57 147.75 180.57 156.44 178.75 156.44 178.75 147.75 178.75 147.75" fill="#68e1fd" fill-rule="evenodd"></polygon><polygon points="178.75 159.28 185.72 159.28 185.72 167.97 178.75 167.97 178.75 159.28 178.75 159.28" fill="#68e1fd" fill-rule="evenodd"></polygon><polygon points="178.75 159.28 180.57 159.28 180.57 167.97 178.75 167.97 178.75 159.28 178.75 159.28" fill="#68e1fd" fill-rule="evenodd"></polygon><polygon points="178.75 170.02 185.72 170.02 185.72 178.71 178.75 178.71 178.75 170.02 178.75 170.02" fill="#68e1fd" fill-rule="evenodd"></polygon><polygon points="178.75 170.02 180.57 170.02 180.57 178.71 178.75 178.71 178.75 170.02 178.75 170.02" fill="#68e1fd" fill-rule="evenodd"></polygon><polygon points="178.75 180.76 185.72 180.76 185.72 189.44 178.75 189.44 178.75 180.76 178.75 180.76" fill="#68e1fd" fill-rule="evenodd"></polygon><polygon points="178.75 180.76 180.57 180.76 180.57 189.44 178.75 189.44 178.75 180.76 178.75 180.76" fill="#68e1fd" fill-rule="evenodd"></polygon><polygon points="178.75 192.28 185.72 192.28 185.72 200.97 178.75 200.97 178.75 192.28 178.75 192.28" fill="#68e1fd" fill-rule="evenodd"></polygon><polygon points="178.75 192.28 180.57 192.28 180.57 200.97 178.75 200.97 178.75 192.28 178.75 192.28" fill="#68e1fd" fill-rule="evenodd"></polygon><polygon points="178.75 203.02 185.72 203.02 185.72 211.71 178.75 211.71 178.75 203.02 178.75 203.02" fill="#68e1fd" fill-rule="evenodd"></polygon><polygon points="178.75 203.02 180.57 203.02 180.57 211.71 178.75 211.71 178.75 203.02 178.75 203.02" fill="#68e1fd" fill-rule="evenodd"></polygon><polygon points="178.75 213.76 185.72 213.76 185.72 222.45 178.75 222.45 178.75 213.76 178.75 213.76" fill="#68e1fd" fill-rule="evenodd"></polygon><polygon points="178.75 213.76 180.57 213.76 180.57 222.45 178.75 222.45 178.75 213.76 178.75 213.76" fill="#68e1fd" fill-rule="evenodd"></polygon><polygon points="188.49 192.28 195.46 192.28 195.46 200.97 188.49 200.97 188.49 192.28 188.49 192.28" fill="#68e1fd" fill-rule="evenodd"></polygon><polygon points="188.49 192.28 190.31 192.28 190.31 200.97 188.49 200.97 188.49 192.28 188.49 192.28" fill="#68e1fd" fill-rule="evenodd"></polygon><polygon points="188.49 203.02 195.46 203.02 195.46 211.71 188.49 211.71 188.49 203.02 188.49 203.02" fill="#68e1fd" fill-rule="evenodd"></polygon><polygon points="188.49 203.02 190.31 203.02 190.31 211.71 188.49 211.71 188.49 203.02 188.49 203.02" fill="#68e1fd" fill-rule="evenodd"></polygon><polygon points="188.32 213.76 195.29 213.76 195.29 222.45 188.32 222.45 188.32 213.76 188.32 213.76" fill="#68e1fd" fill-rule="evenodd"></polygon><polygon points="188.32 213.76 190.14 213.76 190.14 222.45 188.32 222.45 188.32 213.76 188.32 213.76" fill="#68e1fd" fill-rule="evenodd"></polygon><rect x="171.13" y="112.09" width="3.56" height="4.99" fill="#68e1fd"></rect><rect x="177.15" y="112.09" width="3.56" height="4.99" fill="#68e1fd"></rect><rect x="183.17" y="112.09" width="3.56" height="4.99" fill="#68e1fd"></rect><rect x="177.15" y="112.09" width="1.05" height="4.99" fill="#68e1fd"></rect><rect x="183.17" y="112.09" width="1.05" height="4.99" fill="#68e1fd"></rect><rect x="211.05" y="180.93" width="3.56" height="138.61" transform="translate(424.57 445.82) rotate(180)" fill="#68e1fd"></rect><rect x="213.56" y="180.93" width="1.05" height="138.61" transform="translate(427.08 445.82) rotate(180)" fill="#68e1fd"></rect><rect x="205.03" y="180.93" width="3.56" height="138.61" transform="translate(412.53 445.82) rotate(180)" fill="#68e1fd"></rect><rect x="207.54" y="180.93" width="1.05" height="138.61" transform="translate(415.04 445.82) rotate(180)" fill="#68e1fd"></rect><polygon points="165.42 103.64 186.73 88.95 195.6 103.64 165.42 103.64" fill="#68e1fd" fill-rule="evenodd"></polygon><polygon points="208.77 103.64 186.73 88.95 195.6 103.64 208.77 103.64" fill="#68e1fd" fill-rule="evenodd"></polygon><rect x="197.43" y="110.7" width="15.99" height="7.06" fill="url(#linear-gradient-12)"></rect><rect x="195.6" y="103.64" width="13.17" height="7.06" fill="url(#linear-gradient-13)"></rect><polygon points="208.77 103.64 186.73 88.95 195.6 103.64 208.77 103.64" fill-rule="evenodd" fill="url(#linear-gradient-14)"></polygon><path d="M563.87,319a68.93,68.93,0,0,1-3.51,18c-3.75,10.44-11,19.34-19.14,26.84-35.3,32.51-84.45,39.26-126.61,58.91-6.68,3.14-13.4,6.28-20.19,9.31-31.48,14.22-64,26.71-99,27.63-36.91,1-69.28-15.93-107.79-12.14-33.08,3.2-67.74,9.27-98.57-3.11-18.79-7.54-33.63-20.91-45.47-37.21-13.84-19-23.6-42-30.8-64.5C10.29,335,8,327.05,6.2,319Z" transform="translate(-1.09 -54.65)" fill="#68e1fd"></path><path d="M304.6,259.45H212.9v60.37h91.7V259.45Z" transform="translate(-1.09 -54.65)" fill="#68e1fd" fill-rule="evenodd"></path><path d="M304.6,259.45H212.9v60.37h91.7V259.45Z" transform="translate(-1.09 -54.65)" fill-rule="evenodd" fill="url(#linear-gradient-15)"></path><polygon points="250.57 217.3 220.64 217.3 220.64 235.52 250.57 235.52 250.57 217.3 250.57 217.3" fill-rule="evenodd" fill="url(#linear-gradient-16)"></polygon><polygon points="222.21 217.3 220.64 217.3 220.64 235.52 222.21 235.52 222.21 217.3 222.21 217.3" fill="#68e1fd" fill-rule="evenodd"></polygon><polygon points="226.34 217.3 225.96 217.3 225.96 235.52 226.34 235.52 226.34 217.3 226.34 217.3" fill="#68e1fd" fill-rule="evenodd"></polygon><polygon points="246.23 217.3 245.85 217.3 245.85 235.52 246.23 235.52 246.23 217.3 246.23 217.3" fill="#68e1fd" fill-rule="evenodd"></polygon><polygon points="295.01 217.3 265.07 217.3 265.07 235.52 295.01 235.52 295.01 217.3 295.01 217.3" fill-rule="evenodd" fill="url(#linear-gradient-17)"></polygon><polygon points="266.64 217.3 265.07 217.3 265.07 235.52 266.64 235.52 266.64 217.3 266.64 217.3" fill="#68e1fd" fill-rule="evenodd"></polygon><polygon points="271.41 217.3 271.02 217.3 271.02 235.52 271.41 235.52 271.41 217.3 271.41 217.3" fill="#68e1fd" fill-rule="evenodd"></polygon><polygon points="291.29 217.3 290.91 217.3 290.91 235.52 291.29 235.52 291.29 217.3 291.29 217.3" fill="#68e1fd" fill-rule="evenodd"></polygon><polygon points="295.05 243.74 276.1 243.74 276.1 255.7 295.05 255.7 295.05 243.74 295.05 243.74" fill-rule="evenodd" fill="url(#linear-gradient-18)"></polygon><polygon points="277.67 243.74 276.1 243.74 276.1 255.7 277.67 255.7 277.67 243.74 277.67 243.74" fill="#68e1fd" fill-rule="evenodd"></polygon><polygon points="280.14 243.74 279.75 243.74 279.75 255.72 280.14 255.72 280.14 243.74 280.14 243.74" fill="#68e1fd" fill-rule="evenodd"></polygon><polygon points="291.83 243.74 291.45 243.74 291.45 255.72 291.83 255.72 291.83 243.74 291.83 243.74" fill="#68e1fd" fill-rule="evenodd"></polygon><polygon points="319.9 204.8 303.51 204.8 303.51 265.17 319.9 265.17 319.9 204.8 319.9 204.8" fill="#68e1fd" fill-rule="evenodd"></polygon><polygon points="319.9 204.8 303.51 204.8 303.51 265.17 319.9 265.17 319.9 204.8 319.9 204.8" fill-rule="evenodd" fill="url(#linear-gradient-19)"></polygon><path d="M212.91,272h1.42a.35.35,0,0,1,.32.37v1.48a.35.35,0,0,1-.32.37h-1.42V272Z" transform="translate(-1.09 -54.65)" fill="#68e1fd" fill-rule="evenodd" opacity="0.4"></path><path d="M212.91,269.45h3.15a.31.31,0,0,1,.24.12.42.42,0,0,1,.09.27v1.45a.42.42,0,0,1-.09.27.34.34,0,0,1-.24.11h-3.15v-2.22Z" transform="translate(-1.09 -54.65)" fill="#68e1fd" fill-rule="evenodd" opacity="0.4"></path><polygon points="303.51 204.8 209.92 204.8 209.92 214.8 303.51 214.8 303.51 204.8 303.51 204.8" fill-rule="evenodd" opacity="0.65" fill="url(#linear-gradient-20)"></polygon><polygon points="321.79 204.8 303.51 204.8 303.51 214.8 321.79 214.8 321.79 204.8 321.79 204.8" fill="#68e1fd" fill-rule="evenodd" opacity="0.4"></polygon><polygon points="303.53 215.92 211.83 215.92 211.83 214.8 303.53 214.8 303.53 215.92 303.53 215.92" fill="#68e1fd" fill-rule="evenodd" opacity="0.2" style="mix-blend-mode: multiply;"></polygon><polygon points="319.9 215.92 303.51 215.92 303.51 214.8 319.9 214.8 319.9 215.92 319.9 215.92" fill="#68e1fd" fill-rule="evenodd" opacity="0.2" style="mix-blend-mode: multiply;"></polygon><polygon points="303.53 241.9 211.83 241.9 211.83 240.78 303.53 240.78 303.53 241.9 303.53 241.9" fill="#68e1fd" fill-rule="evenodd" opacity="0.5" style="mix-blend-mode: multiply;"></polygon><polygon points="319.9 241.9 303.52 241.9 303.52 240.78 319.9 240.78 319.9 241.9 319.9 241.9" fill="#68e1fd" fill-rule="evenodd" opacity="0.5" style="mix-blend-mode: multiply;"></polygon><polygon points="303.51 237.66 209.92 237.66 209.92 240.76 303.51 240.76 303.51 237.66 303.51 237.66" fill="#68e1fd" fill-rule="evenodd" opacity="0.4"></polygon><polygon points="321.79 237.66 303.51 237.66 303.51 240.76 321.79 240.76 321.79 237.66 321.79 237.66" fill="#68e1fd" fill-rule="evenodd" opacity="0.4"></polygon><path d="M257.81,275.57a.31.31,0,0,0-.09-.22.26.26,0,0,0-.19-.1h-3.12a.28.28,0,0,0-.2.1.35.35,0,0,0-.08.22v1.15a.36.36,0,0,0,.08.23.27.27,0,0,0,.2.09h3.12a.25.25,0,0,0,.19-.09.32.32,0,0,0,.09-.23v-1.15Z" transform="translate(-1.09 -54.65)" fill="#68e1fd" fill-rule="evenodd" opacity="0.4"></path><path d="M259.07,277.71a.35.35,0,0,0-.08-.22.28.28,0,0,0-.2-.09h-3.12a.28.28,0,0,0-.2.09.35.35,0,0,0-.08.22v1.16a.35.35,0,0,0,.08.22.28.28,0,0,0,.2.09h3.12a.28.28,0,0,0,.2-.09.35.35,0,0,0,.08-.22v-1.16Z" transform="translate(-1.09 -54.65)" fill="#68e1fd" fill-rule="evenodd" opacity="0.4"></path><path d="M275,296.9a.35.35,0,0,0-.08-.22.26.26,0,0,0-.2-.1h-3.11a.26.26,0,0,0-.2.1.35.35,0,0,0-.08.22v1.15a.36.36,0,0,0,.08.23.25.25,0,0,0,.2.09h3.11a.25.25,0,0,0,.2-.09.36.36,0,0,0,.08-.23V296.9Z" transform="translate(-1.09 -54.65)" fill="#68e1fd" fill-rule="evenodd" opacity="0.4"></path><polygon points="248.55 246.74 224.15 246.74 224.15 265.1 248.55 265.1 248.55 246.74 248.55 246.74" fill-rule="evenodd" fill="url(#linear-gradient-21)"></polygon><polygon points="264.46 246.74 253.77 246.74 253.77 265.1 264.46 265.1 264.46 246.74 264.46 246.74" fill-rule="evenodd" fill="url(#linear-gradient-22)"></polygon><rect x="323.9" y="180.17" width="71.39" height="28.49" fill="#68e1fd"></rect><rect x="323.9" y="180.17" width="71.39" height="28.49" fill="url(#linear-gradient-23)"></rect><rect x="377.6" y="176.25" width="18.25" height="30.97" fill="url(#linear-gradient-24)"></rect><path d="M406.46,259.69h-91.7v60.37h91.7V259.69Z" transform="translate(-1.09 -54.65)" fill="#68e1fd" fill-rule="evenodd"></path><path d="M406.46,259.69h-91.7v60.37h91.7V259.69Z" transform="translate(-1.09 -54.65)" fill-rule="evenodd" fill="url(#linear-gradient-25)"></path><polygon points="352.43 217.54 322.49 217.54 322.49 235.76 352.43 235.76 352.43 217.54 352.43 217.54" fill="#68e1fd" fill-rule="evenodd"></polygon><polygon points="324.07 217.54 322.49 217.54 322.49 235.76 324.07 235.76 324.07 217.54 324.07 217.54" fill="#68e1fd" fill-rule="evenodd"></polygon><polygon points="328.2 217.54 327.82 217.54 327.82 235.76 328.2 235.76 328.2 217.54 328.2 217.54" fill="#68e1fd" fill-rule="evenodd"></polygon><polygon points="348.09 217.54 347.7 217.54 347.7 235.76 348.09 235.76 348.09 217.54 348.09 217.54" fill="#68e1fd" fill-rule="evenodd"></polygon><polygon points="396.86 217.54 366.93 217.54 366.93 235.76 396.86 235.76 396.86 217.54 396.86 217.54" fill="#68e1fd" fill-rule="evenodd"></polygon><polygon points="368.5 217.54 366.93 217.54 366.93 235.76 368.5 235.76 368.5 217.54 368.5 217.54" fill="#68e1fd" fill-rule="evenodd"></polygon><polygon points="373.26 217.54 372.88 217.54 372.88 235.76 373.26 235.76 373.26 217.54 373.26 217.54" fill="#68e1fd" fill-rule="evenodd"></polygon><polygon points="393.15 217.54 392.77 217.54 392.77 235.76 393.15 235.76 393.15 217.54 393.15 217.54" fill="#68e1fd" fill-rule="evenodd"></polygon><polygon points="421.76 205.04 405.37 205.04 405.37 265.41 421.76 265.41 421.76 205.04 421.76 205.04" fill="#68e1fd" fill-rule="evenodd"></polygon><polygon points="421.76 205.04 405.37 205.04 405.37 265.41 421.76 265.41 421.76 205.04 421.76 205.04" fill-rule="evenodd" fill="url(#linear-gradient-26)"></polygon><path d="M406.46,272.27H405a.35.35,0,0,0-.32.37v1.48a.35.35,0,0,0,.32.37h1.42v-2.22Z" transform="translate(-1.09 -54.65)" fill="#68e1fd" fill-rule="evenodd" opacity="0.4"></path><path d="M406.46,269.69h-3.15a.31.31,0,0,0-.24.12.43.43,0,0,0-.1.27v1.45a.43.43,0,0,0,.1.27.34.34,0,0,0,.24.11h3.15v-2.22Z" transform="translate(-1.09 -54.65)" fill="#68e1fd" fill-rule="evenodd" opacity="0.4"></path><path d="M406.46,269.69h-3.15a.31.31,0,0,0-.24.12.43.43,0,0,0-.1.27v1.45a.43.43,0,0,0,.1.27.34.34,0,0,0,.24.11h3.15v-2.22Z" transform="translate(-1.09 -54.65)" fill="#68e1fd" fill-rule="evenodd" opacity="0.4"></path><path d="M314.76,272.27h1.42a.36.36,0,0,1,.33.37v1.48a.36.36,0,0,1-.33.37h-1.42v-2.22Z" transform="translate(-1.09 -54.65)" fill="#68e1fd" fill-rule="evenodd" opacity="0.4"></path><path d="M314.76,269.69h3.15a.3.3,0,0,1,.24.12.38.38,0,0,1,.1.27v1.45a.38.38,0,0,1-.1.27.32.32,0,0,1-.24.11h-3.15v-2.22Z" transform="translate(-1.09 -54.65)" fill="#68e1fd" fill-rule="evenodd" opacity="0.4"></path><path d="M314.76,278.52h1.42a.36.36,0,0,1,.33.37v1.48a.36.36,0,0,1-.33.37h-1.42v-2.22Z" transform="translate(-1.09 -54.65)" fill="#68e1fd" fill-rule="evenodd" opacity="0.4"></path><path d="M314.76,275.94h3.15a.3.3,0,0,1,.24.12.38.38,0,0,1,.1.27v1.45a.38.38,0,0,1-.1.27.32.32,0,0,1-.24.11h-3.15v-2.22Z" transform="translate(-1.09 -54.65)" fill="#68e1fd" fill-rule="evenodd" opacity="0.4"></path><path d="M314.76,272.27h1.42a.36.36,0,0,1,.33.37v1.48a.36.36,0,0,1-.33.37h-1.42v-2.22Z" transform="translate(-1.09 -54.65)" fill="#68e1fd" fill-rule="evenodd" opacity="0.4"></path><path d="M314.76,269.69h3.15a.3.3,0,0,1,.24.12.38.38,0,0,1,.1.27v1.45a.38.38,0,0,1-.1.27.32.32,0,0,1-.24.11h-3.15v-2.22Z" transform="translate(-1.09 -54.65)" fill="#68e1fd" fill-rule="evenodd" opacity="0.4"></path><path d="M406.46,285.12H405a.34.34,0,0,0-.32.37V287a.35.35,0,0,0,.32.37h1.42v-2.22Z" transform="translate(-1.09 -54.65)" fill="#68e1fd" fill-rule="evenodd" opacity="0.4"></path><path d="M406.46,282.54h-3.15a.34.34,0,0,0-.24.11.43.43,0,0,0-.1.27v1.46a.45.45,0,0,0,.1.27.34.34,0,0,0,.24.11h3.15v-2.22Z" transform="translate(-1.09 -54.65)" fill="#68e1fd" fill-rule="evenodd" opacity="0.4"></path><path d="M314.76,285.12h1.42a.35.35,0,0,1,.33.37V287a.36.36,0,0,1-.33.37h-1.42v-2.22Z" transform="translate(-1.09 -54.65)" fill="#68e1fd" fill-rule="evenodd" opacity="0.4"></path><path d="M314.76,282.54h3.15a.32.32,0,0,1,.24.11.38.38,0,0,1,.1.27v1.46a.39.39,0,0,1-.1.27.32.32,0,0,1-.24.11h-3.15v-2.22Z" transform="translate(-1.09 -54.65)" fill="#68e1fd" fill-rule="evenodd" opacity="0.4"></path><path d="M314.76,291.37h1.42a.35.35,0,0,1,.33.37v1.48a.36.36,0,0,1-.33.37h-1.42v-2.22Z" transform="translate(-1.09 -54.65)" fill="#68e1fd" fill-rule="evenodd" opacity="0.4"></path><path d="M314.76,288.79h3.15a.32.32,0,0,1,.24.11.38.38,0,0,1,.1.27v1.45a.4.4,0,0,1-.1.28.32.32,0,0,1-.24.11h-3.15v-2.22Z" transform="translate(-1.09 -54.65)" fill="#68e1fd" fill-rule="evenodd" opacity="0.4"></path><path d="M314.76,285.12h1.42a.35.35,0,0,1,.33.37V287a.36.36,0,0,1-.33.37h-1.42v-2.22Z" transform="translate(-1.09 -54.65)" fill="#68e1fd" fill-rule="evenodd" opacity="0.4"></path><path d="M314.76,282.54h3.15a.32.32,0,0,1,.24.11.38.38,0,0,1,.1.27v1.46a.39.39,0,0,1-.1.27.32.32,0,0,1-.24.11h-3.15v-2.22Z" transform="translate(-1.09 -54.65)" fill="#68e1fd" fill-rule="evenodd" opacity="0.4"></path><path d="M406.46,298H405a.35.35,0,0,0-.32.37v1.48a.34.34,0,0,0,.32.37h1.42V298Z" transform="translate(-1.09 -54.65)" fill="#68e1fd" fill-rule="evenodd" opacity="0.4"></path><path d="M406.46,295.39h-3.15a.34.34,0,0,0-.24.11.43.43,0,0,0-.1.27v1.45a.43.43,0,0,0,.1.27.35.35,0,0,0,.24.12h3.15v-2.22Z" transform="translate(-1.09 -54.65)" fill="#68e1fd" fill-rule="evenodd" opacity="0.4"></path><path d="M314.76,298h1.42a.36.36,0,0,1,.33.37v1.48a.35.35,0,0,1-.33.37h-1.42V298Z" transform="translate(-1.09 -54.65)" fill="#68e1fd" fill-rule="evenodd" opacity="0.4"></path><path d="M314.76,295.39h3.15a.32.32,0,0,1,.24.11.38.38,0,0,1,.1.27v1.45a.38.38,0,0,1-.1.27.33.33,0,0,1-.24.12h-3.15v-2.22Z" transform="translate(-1.09 -54.65)" fill="#68e1fd" fill-rule="evenodd" opacity="0.4"></path><path d="M314.76,304.21h1.42a.36.36,0,0,1,.33.37v1.48a.35.35,0,0,1-.33.37h-1.42v-2.22Z" transform="translate(-1.09 -54.65)" fill="#68e1fd" fill-rule="evenodd" opacity="0.4"></path><path d="M314.76,301.64h3.15a.32.32,0,0,1,.24.11.38.38,0,0,1,.1.27v1.45a.38.38,0,0,1-.1.27.33.33,0,0,1-.24.12h-3.15v-2.22Z" transform="translate(-1.09 -54.65)" fill="#68e1fd" fill-rule="evenodd" opacity="0.4"></path><path d="M314.76,298h1.42a.36.36,0,0,1,.33.37v1.48a.35.35,0,0,1-.33.37h-1.42V298Z" transform="translate(-1.09 -54.65)" fill="#68e1fd" fill-rule="evenodd" opacity="0.4"></path><path d="M314.76,295.39h3.15a.32.32,0,0,1,.24.11.38.38,0,0,1,.1.27v1.45a.38.38,0,0,1-.1.27.33.33,0,0,1-.24.12h-3.15v-2.22Z" transform="translate(-1.09 -54.65)" fill="#68e1fd" fill-rule="evenodd" opacity="0.4"></path><path d="M406.46,310.81H405a.35.35,0,0,0-.32.37v1.48a.35.35,0,0,0,.32.37h1.42v-2.22Z" transform="translate(-1.09 -54.65)" fill="#68e1fd" fill-rule="evenodd" opacity="0.4"></path><path d="M406.46,308.23h-3.15a.35.35,0,0,0-.24.12.43.43,0,0,0-.1.27v1.45a.43.43,0,0,0,.1.27.34.34,0,0,0,.24.11h3.15v-2.22Z" transform="translate(-1.09 -54.65)" fill="#68e1fd" fill-rule="evenodd" opacity="0.4"></path><path d="M314.76,310.81h1.42a.36.36,0,0,1,.33.37v1.48a.36.36,0,0,1-.33.37h-1.42v-2.22Z" transform="translate(-1.09 -54.65)" fill="#68e1fd" fill-rule="evenodd" opacity="0.4"></path><path d="M314.76,308.23h3.15a.33.33,0,0,1,.24.12.38.38,0,0,1,.1.27v1.45a.38.38,0,0,1-.1.27.32.32,0,0,1-.24.11h-3.15v-2.22Z" transform="translate(-1.09 -54.65)" fill="#68e1fd" fill-rule="evenodd" opacity="0.4"></path><path d="M314.76,317.06h1.42a.36.36,0,0,1,.33.37v1.48a.36.36,0,0,1-.33.37h-1.42v-2.22Z" transform="translate(-1.09 -54.65)" fill="#68e1fd" fill-rule="evenodd" opacity="0.4"></path><path d="M314.76,314.48h3.15a.3.3,0,0,1,.24.12.38.38,0,0,1,.1.27v1.45a.38.38,0,0,1-.1.27.32.32,0,0,1-.24.11h-3.15v-2.22Z" transform="translate(-1.09 -54.65)" fill="#68e1fd" fill-rule="evenodd" opacity="0.4"></path><path d="M314.76,310.81h1.42a.36.36,0,0,1,.33.37v1.48a.36.36,0,0,1-.33.37h-1.42v-2.22Z" transform="translate(-1.09 -54.65)" fill="#68e1fd" fill-rule="evenodd" opacity="0.4"></path><path d="M314.76,308.23h3.15a.33.33,0,0,1,.24.12.38.38,0,0,1,.1.27v1.45a.38.38,0,0,1-.1.27.32.32,0,0,1-.24.11h-3.15v-2.22Z" transform="translate(-1.09 -54.65)" fill="#68e1fd" fill-rule="evenodd" opacity="0.4"></path><polygon points="405.37 205.04 311.78 205.04 311.78 215.04 405.37 215.04 405.37 205.04 405.37 205.04" fill="#68e1fd" fill-rule="evenodd"></polygon><polygon points="303.51 204.8 209.92 204.8 209.92 214.8 303.51 214.8 303.51 204.8 303.51 204.8" fill-rule="evenodd" opacity="0.65" fill="url(#linear-gradient-20)"></polygon><polygon points="405.37 205.04 311.78 205.04 311.78 215.04 405.37 215.04 405.37 205.04 405.37 205.04" fill-rule="evenodd" opacity="0.65" fill="url(#linear-gradient-28)"></polygon><polygon points="423.65 205.04 405.37 205.04 405.37 215.04 423.65 215.04 423.65 205.04 423.65 205.04" fill="#68e1fd" fill-rule="evenodd" opacity="0.4"></polygon><polygon points="405.39 216.16 313.68 216.16 313.68 215.04 405.39 215.04 405.39 216.16 405.39 216.16" fill="#68e1fd" fill-rule="evenodd" opacity="0.2" style="mix-blend-mode: multiply;"></polygon><polygon points="421.76 216.16 405.36 216.16 405.36 215.04 421.76 215.04 421.76 216.16 421.76 216.16" fill="#68e1fd" fill-rule="evenodd" opacity="0.2" style="mix-blend-mode: multiply;"></polygon><polygon points="405.39 242.14 313.68 242.14 313.68 241.02 405.39 241.02 405.39 242.14 405.39 242.14" fill="#68e1fd" fill-rule="evenodd" opacity="0.5" style="mix-blend-mode: multiply;"></polygon><polygon points="421.76 242.14 405.37 242.14 405.37 241.02 421.76 241.02 421.76 242.14 421.76 242.14" fill="#68e1fd" fill-rule="evenodd" opacity="0.5" style="mix-blend-mode: multiply;"></polygon><polygon points="405.37 237.9 311.78 237.9 311.78 241 405.37 241 405.37 237.9 405.37 237.9" fill="#68e1fd" fill-rule="evenodd" opacity="0.4"></polygon><polygon points="423.65 237.9 405.37 237.9 405.37 241 423.65 241 423.65 237.9 423.65 237.9" fill="#68e1fd" fill-rule="evenodd" opacity="0.4"></polygon><path d="M359.66,275.81a.35.35,0,0,0-.08-.22.26.26,0,0,0-.2-.1h-3.11a.26.26,0,0,0-.2.1.35.35,0,0,0-.08.22V277a.36.36,0,0,0,.08.23.25.25,0,0,0,.2.09h3.11a.25.25,0,0,0,.2-.09.36.36,0,0,0,.08-.23v-1.15Z" transform="translate(-1.09 -54.65)" fill="#68e1fd" fill-rule="evenodd" opacity="0.4"></path><path d="M360.92,278a.35.35,0,0,0-.08-.22.25.25,0,0,0-.2-.09h-3.11a.25.25,0,0,0-.2.09.35.35,0,0,0-.08.22v1.16a.35.35,0,0,0,.08.22.25.25,0,0,0,.2.09h3.11a.25.25,0,0,0,.2-.09.35.35,0,0,0,.08-.22V278Z" transform="translate(-1.09 -54.65)" fill="#68e1fd" fill-rule="evenodd" opacity="0.4"></path><path d="M376.86,297.14a.35.35,0,0,0-.08-.22.28.28,0,0,0-.2-.1h-3.12a.3.3,0,0,0-.2.1.35.35,0,0,0-.08.22v1.15a.36.36,0,0,0,.08.23.28.28,0,0,0,.2.09h3.12a.27.27,0,0,0,.2-.09.36.36,0,0,0,.08-.23v-1.15Z" transform="translate(-1.09 -54.65)" fill="#68e1fd" fill-rule="evenodd" opacity="0.4"></path><polygon points="250.57 217.3 220.64 217.3 220.64 235.52 250.57 235.52 250.57 217.3 250.57 217.3" fill-rule="evenodd" fill="url(#linear-gradient-16)"></polygon><polygon points="295.01 217.3 265.07 217.3 265.07 235.52 295.01 235.52 295.01 217.3 295.01 217.3" fill-rule="evenodd" fill="url(#linear-gradient-17)"></polygon><polygon points="295.05 243.74 276.1 243.74 276.1 255.7 295.05 255.7 295.05 243.74 295.05 243.74" fill-rule="evenodd" fill="url(#linear-gradient-18)"></polygon><polygon points="248.55 246.74 224.15 246.74 224.15 265.1 248.55 265.1 248.55 246.74 248.55 246.74" fill-rule="evenodd" fill="url(#linear-gradient-21)"></polygon><polygon points="264.46 246.74 253.77 246.74 253.77 265.1 264.46 265.1 264.46 246.74 264.46 246.74" fill-rule="evenodd" fill="url(#linear-gradient-22)"></polygon><polygon points="352.43 217.54 322.49 217.54 322.49 235.76 352.43 235.76 352.43 217.54 352.43 217.54" fill-rule="evenodd" fill="url(#linear-gradient-34)"></polygon><polygon points="396.86 217.54 366.93 217.54 366.93 235.76 396.86 235.76 396.86 217.54 396.86 217.54" fill-rule="evenodd" fill="url(#linear-gradient-35)"></polygon><polygon points="372.17 246.98 347.77 246.98 347.77 265.34 372.17 265.34 372.17 246.98 372.17 246.98" fill-rule="evenodd" fill="url(#linear-gradient-36)"></polygon><rect x="320.94" y="174.56" width="77.31" height="9.84" fill="#68e1fd"></rect><rect x="320.94" y="174.56" width="77.31" height="9.84" opacity="0.65" fill="url(#linear-gradient-37)"></rect><rect x="331.26" y="188.49" width="15.37" height="7.92" fill="url(#linear-gradient-38)"></rect><rect x="434.59" y="159.56" width="47.58" height="107.94" fill="#68e1fd"></rect><rect x="434.59" y="159.56" width="47.58" height="107.94" opacity="0.65" fill="url(#linear-gradient-39)"></rect><rect x="483.26" y="214.21" width="16.12" height="107.94" transform="translate(981.55 481.71) rotate(180)" fill="url(#linear-gradient-40)"></rect><rect x="433.28" y="152.84" width="49.86" height="6.72" fill="#68e1fd"></rect><rect x="483.26" y="207.49" width="17.65" height="6.72" transform="translate(983.07 367.05) rotate(180)" fill="#68e1fd"></rect><rect x="483.26" y="207.49" width="17.65" height="6.72" transform="translate(983.07 367.05) rotate(180)" fill="url(#linear-gradient-41)"></rect><rect x="434.57" y="165.73" width="63.73" height="0.87" fill="#68e1fd"></rect><rect x="482.17" y="165.73" width="16.12" height="0.87" fill="#68e1fd"></rect><rect x="434.57" y="175.87" width="63.73" height="0.87" fill="#68e1fd"></rect><rect x="482.17" y="175.87" width="16.12" height="0.87" fill="#68e1fd"></rect><rect x="434.57" y="186.01" width="63.73" height="0.87" fill="#68e1fd"></rect><rect x="482.17" y="186.01" width="16.12" height="0.87" fill="#68e1fd"></rect><rect x="434.57" y="196.16" width="63.73" height="0.87" fill="#68e1fd"></rect><rect x="482.17" y="196.16" width="16.12" height="0.87" fill="#68e1fd"></rect><rect x="434.57" y="206.3" width="63.73" height="0.87" fill="#68e1fd"></rect><rect x="482.17" y="206.3" width="16.12" height="0.87" fill="#68e1fd"></rect><rect x="434.57" y="216.44" width="63.73" height="0.87" fill="url(#linear-gradient-42)"></rect><rect x="482.17" y="216.44" width="16.12" height="0.87" fill="#68e1fd"></rect><rect x="434.57" y="226.59" width="63.73" height="0.87" fill="#68e1fd"></rect><rect x="482.17" y="226.59" width="16.12" height="0.87" fill="#68e1fd"></rect><rect x="434.57" y="236.73" width="63.73" height="0.87" fill="#68e1fd"></rect><rect x="482.17" y="236.73" width="16.12" height="0.87" fill="#68e1fd"></rect><rect x="434.57" y="246.87" width="63.73" height="0.87" fill="#68e1fd"></rect><rect x="482.17" y="246.87" width="16.12" height="0.87" fill="#68e1fd"></rect><rect x="434.57" y="257.01" width="63.73" height="0.87" fill="#68e1fd"></rect><rect x="482.17" y="257.01" width="16.12" height="0.87" fill="#68e1fd"></rect><rect x="434.57" y="216.44" width="63.73" height="0.87" fill="#68e1fd"></rect><rect x="482.17" y="216.44" width="16.12" height="0.87" fill="#68e1fd"></rect><rect x="128.86" y="231.23" width="26.65" height="11.52" fill="url(#linear-gradient-43)"></rect><rect x="26.59" y="233.92" width="71.07" height="30.91" fill="#68e1fd"></rect><rect x="37.15" y="238.43" width="56.66" height="7.2" fill="url(#linear-gradient-44)"></rect><rect x="57.08" y="248.27" width="36.97" height="15.37" fill="url(#linear-gradient-45)"></rect><rect x="24.67" y="227.38" width="75.53" height="9.6" fill="#68e1fd"></rect><rect x="24.67" y="227.38" width="75.53" height="9.6" opacity="0.65" fill="url(#linear-gradient-46)"></rect><path d="M565.58,252.53c0,1.19-.07,2.35-.1,3.51q-.53,24.91-1.06,49.8c-.07,4.4-.21,8.8-.55,13.16a68.93,68.93,0,0,1-3.51,18c-3.75,10.44-11,19.34-19.14,26.84-31.85,29.34-75,37.69-114.12,53.52-4.23,1.71-8.39,3.48-12.49,5.39-6.68,3.14-13.4,6.28-20.19,9.31-31.48,14.22-64,26.71-99,27.63-36.91,1-69.28-15.93-107.79-12.14-33.08,3.2-67.74,9.27-98.57-3.11-14.73-5.9-27-15.38-37.35-27.08-2.86-3.21-5.56-6.62-8.12-10.13-13.84-19-23.6-42-30.8-64.5C10.29,335,8,327.05,6.2,319c-.1-.51-.24-1-.34-1.53.07-.28.17-.55.24-.82C7.46,312,9,307.44,10.46,302.83c2.39-7.4,4.78-14.83,6.69-22.34q.77-3,1.43-6c3.79-17.3,4.64-35,5.84-52.67h34V192.46H97.17v45H113.4V201.36h19.07v33.5h25.41v39.26h28.79V235.91h50.27v38.21h43.94V214h22.51v19.34h18.86v40.83h18.83V246.93h23v27.19h12.59V229.43h22V211.29H440.5v62.83H459V175h41.85v99.09H518.3V191.78h32.13v34.89h14.84C565.82,235.27,565.75,243.93,565.58,252.53Z" transform="translate(-1.09 -54.65)" fill="#68e1fd" opacity="0.24" style="isolation: isolate;"></path><path d="M565.58,252.53c0,1.19-.07,2.35-.1,3.51q-.53,24.91-1.06,49.8c-.07,4.4-.21,8.8-.55,13.16a68.93,68.93,0,0,1-3.51,18c-3.75,10.44-11,19.34-19.14,26.84-31.85,29.34-75,37.69-114.12,53.52H51.7c-2.86-3.21-5.56-6.62-8.12-10.13-13.84-19-23.6-42-30.8-64.5C10.29,335,8,327.05,6.2,319c-.1-.51-.24-1-.34-1.53.07-.28.17-.55.24-.82h4.36V302.83c2.39-7.4,4.78-14.83,6.69-22.34H32.77v36.16H43V285.58H57v31.07h3V244.44H87.75v72.21H562V205.8h.14C565.88,220.87,565.88,236.84,565.58,252.53Z" transform="translate(-1.09 -54.65)" fill="#68e1fd" opacity="0.24" style="isolation: isolate;"></path><path d="M70.05,264.78a45.9,45.9,0,0,0,2.16-7.18c.43-2.67.17-5.4.35-8.1s.91-5.52,2.9-7.35A30.71,30.71,0,0,1,78,248.66c1,4.6-.09,9.51,1.18,14a43.22,43.22,0,0,0,2.26,5.52A13.51,13.51,0,0,1,82.81,274c-.18,4.74-5.57,7.23-9.57,4.83C68.38,275.89,68.5,269.45,70.05,264.78Z" transform="translate(-1.09 -54.65)" fill="#68e1fd"></path><polygon points="76.36 227.44 73.84 227.44 74.59 218.34 75.75 218.34 76.36 227.44" fill="#68e1fd"></polygon><polygon points="76.36 227.44 73.84 227.44 74.59 218.34 75.75 218.34 76.36 227.44" fill="url(#linear-gradient-47)"></polygon><path d="M55.08,264.78a47,47,0,0,0,2.16-7.18c.43-2.67.16-5.4.35-8.1s.91-5.52,2.9-7.35A30.67,30.67,0,0,1,63,248.66c1,4.6-.08,9.51,1.18,14a44.78,44.78,0,0,0,2.27,5.52A13.51,13.51,0,0,1,67.84,274c-.18,4.74-5.58,7.23-9.57,4.83C53.41,275.89,53.53,269.45,55.08,264.78Z" transform="translate(-1.09 -54.65)" fill="#68e1fd"></path><polygon points="61.38 227.44 58.87 227.44 59.62 218.34 60.77 218.34 61.38 227.44" fill="#68e1fd"></polygon><polygon points="61.38 227.44 58.87 227.44 59.62 218.34 60.77 218.34 61.38 227.44" fill="url(#linear-gradient-48)"></polygon><path d="M40.11,264.78a48.14,48.14,0,0,0,2.16-7.18c.43-2.67.16-5.4.35-8.1s.91-5.52,2.9-7.35A30.67,30.67,0,0,1,48,248.66c1,4.6-.08,9.51,1.18,14a44.78,44.78,0,0,0,2.27,5.52A13.51,13.51,0,0,1,52.87,274c-.18,4.74-5.58,7.23-9.57,4.83C38.44,275.89,38.56,269.45,40.11,264.78Z" transform="translate(-1.09 -54.65)" fill="#68e1fd"></path><polygon points="46.41 227.44 43.9 227.44 44.65 218.34 45.8 218.34 46.41 227.44" fill="#68e1fd"></polygon><polygon points="46.41 227.44 43.9 227.44 44.65 218.34 45.8 218.34 46.41 227.44" fill="url(#linear-gradient-49)"></polygon><path d="M43.58,407.24H455S552.36,377.1,560.36,337H12.31S27.8,388.87,43.58,407.24Z" transform="translate(-1.09 -54.65)" fill="url(#linear-gradient-50)"></path><rect x="34.28" y="308.52" width="202.94" height="6.75" opacity="0.65" fill="url(#linear-gradient-51)"></rect><rect x="312.77" y="308.52" width="212.26" height="6.75" opacity="0.65" fill="url(#linear-gradient-52)"></rect></g></g></svg>