<svg id="Layer_1" data-name="Layer 1" xmlns="http://www.w3.org/2000/svg" xmlns:xlink="http://www.w3.org/1999/xlink" viewBox="0 0 564.43 479.03" width="406" height="306" class="illustration styles_illustrationTablet__1DWOa"><defs><linearGradient id="linear-gradient" x1="279.98" y1="296.7" x2="304.82" y2="617.59" gradientUnits="userSpaceOnUse"><stop offset="0" stop-color="#010101" stop-opacity="0"></stop><stop offset="0.95" stop-color="#010101"></stop></linearGradient><linearGradient id="linear-gradient-2" x1="243.62" y1="164.61" x2="233.95" y2="642.21" xlink:href="#linear-gradient"></linearGradient><linearGradient id="linear-gradient-3" x1="389.5" y1="70.02" x2="376.24" y2="724.84" xlink:href="#linear-gradient"></linearGradient><linearGradient id="linear-gradient-4" x1="232.45" y1="60.4" x2="218.91" y2="729.51" xlink:href="#linear-gradient"></linearGradient><linearGradient id="linear-gradient-5" x1="246.03" y1="60.68" x2="232.49" y2="729.78" xlink:href="#linear-gradient"></linearGradient><linearGradient id="linear-gradient-6" x1="236.85" y1="60.49" x2="223.3" y2="729.6" xlink:href="#linear-gradient"></linearGradient><linearGradient id="linear-gradient-7" x1="239.68" y1="60.55" x2="226.14" y2="729.65" xlink:href="#linear-gradient"></linearGradient><linearGradient id="linear-gradient-8" x1="266.12" y1="61.08" x2="252.58" y2="730.19" xlink:href="#linear-gradient"></linearGradient><linearGradient id="linear-gradient-9" x1="256.35" y1="60.89" x2="242.8" y2="729.99" xlink:href="#linear-gradient"></linearGradient><linearGradient id="linear-gradient-10" x1="288.92" y1="61.55" x2="275.37" y2="730.65" xlink:href="#linear-gradient"></linearGradient><linearGradient id="linear-gradient-11" x1="234.77" y1="60.45" x2="221.22" y2="729.55" xlink:href="#linear-gradient"></linearGradient><linearGradient id="linear-gradient-12" x1="275.07" y1="167.74" x2="287.49" y2="432.73" xlink:href="#linear-gradient"></linearGradient><linearGradient id="linear-gradient-13" x1="351.17" y1="198.84" x2="343.93" y2="340.65" xlink:href="#linear-gradient"></linearGradient><linearGradient id="linear-gradient-14" x1="139.22" y1="216.88" x2="518.07" y2="224.48" xlink:href="#linear-gradient"></linearGradient><linearGradient id="linear-gradient-15" x1="309.35" y1="195.27" x2="330.83" y2="195.53" xlink:href="#linear-gradient"></linearGradient><linearGradient id="linear-gradient-16" x1="339.63" y1="195.27" x2="361.11" y2="195.53" xlink:href="#linear-gradient"></linearGradient><linearGradient id="linear-gradient-17" x1="363.16" y1="70.32" x2="309.34" y2="172.46" gradientUnits="userSpaceOnUse"><stop offset="0" stop-color="#fff" stop-opacity="0"></stop><stop offset="0.95" stop-color="#fff"></stop></linearGradient><linearGradient id="linear-gradient-18" x1="411.95" y1="34.7" x2="358.13" y2="136.83" xlink:href="#linear-gradient-17"></linearGradient><linearGradient id="linear-gradient-19" x1="273.08" y1="166.96" x2="268.42" y2="359.5" xlink:href="#linear-gradient"></linearGradient><linearGradient id="linear-gradient-20" x1="269.42" y1="163.32" x2="198" y2="298.92" xlink:href="#linear-gradient"></linearGradient><linearGradient id="linear-gradient-21" x1="279.28" y1="168.51" x2="207.86" y2="304.11" xlink:href="#linear-gradient"></linearGradient><linearGradient id="linear-gradient-22" x1="289.14" y1="173.7" x2="217.72" y2="309.3" xlink:href="#linear-gradient"></linearGradient><linearGradient id="linear-gradient-23" x1="275.04" y1="166.28" x2="203.62" y2="301.88" xlink:href="#linear-gradient"></linearGradient><linearGradient id="linear-gradient-24" x1="284.9" y1="171.47" x2="213.48" y2="307.07" xlink:href="#linear-gradient"></linearGradient><linearGradient id="linear-gradient-25" x1="294.76" y1="176.66" x2="223.33" y2="312.26" xlink:href="#linear-gradient"></linearGradient><linearGradient id="linear-gradient-26" x1="280.66" y1="169.24" x2="209.24" y2="304.84" xlink:href="#linear-gradient"></linearGradient><linearGradient id="linear-gradient-27" x1="290.52" y1="174.43" x2="219.1" y2="310.03" xlink:href="#linear-gradient"></linearGradient><linearGradient id="linear-gradient-28" x1="300.38" y1="179.62" x2="228.95" y2="315.22" xlink:href="#linear-gradient"></linearGradient><linearGradient id="linear-gradient-29" x1="286.28" y1="172.2" x2="214.86" y2="307.8" xlink:href="#linear-gradient"></linearGradient><linearGradient id="linear-gradient-30" x1="296.14" y1="177.39" x2="224.72" y2="312.99" xlink:href="#linear-gradient"></linearGradient><linearGradient id="linear-gradient-31" x1="306" y1="182.58" x2="234.57" y2="318.18" xlink:href="#linear-gradient"></linearGradient><linearGradient id="linear-gradient-32" x1="253.89" y1="209.05" x2="256.3" y2="356.73" xlink:href="#linear-gradient"></linearGradient><linearGradient id="linear-gradient-33" x1="246.23" y1="225.38" x2="244.03" y2="257.08" xlink:href="#linear-gradient"></linearGradient><linearGradient id="linear-gradient-34" x1="275.35" y1="225.38" x2="273.15" y2="257.08" xlink:href="#linear-gradient"></linearGradient><linearGradient id="linear-gradient-35" x1="270.38" y1="234.11" x2="477.93" y2="238.27" xlink:href="#linear-gradient"></linearGradient><linearGradient id="linear-gradient-36" x1="302.82" y1="234.11" x2="510.36" y2="238.27" xlink:href="#linear-gradient"></linearGradient></defs><title>Global Warming 2</title><path d="M553.38,293.88c-10.8,17.78-27.39,32.24-34.4,51.85-4.91,13.73-4.61,28.87-9.09,42.73-9,27.79-36.2,46.41-64.46,54-62.27,16.64-130-5.14-190.65,21.05-30.66,13.24-55.84,27.2-90.13,18.74-27.51-6.79-52.6-25.21-64.95-51-8.5-17.77-11.37-37.82-19.82-55.6C63,340,25.65,317,10,280.78-3.51,249.53,1.66,213.52,15.53,182c2.48-5.64,5.22-11.15,8.21-16.46,6.2-11,13.42-21.69,22.91-30,17-15,39.61-21.38,60-31.26,27.92-13.52,51.9-33.71,76.75-52.35q5.17-3.94,10.47-7.72c28.73-20.62,61.63-38.46,97-38.36,38.46.1,74.62,22.19,98.37,52.44,14.86,18.86,25.79,41.12,43.89,56.9,28,24.44,68.63,29.59,97.72,52.71C567.39,196.84,577.61,254,553.38,293.88Z" transform="translate(-2.11 -5.77)" fill="#68e1fd" opacity="0.24" style="isolation: isolate;"></path><path d="M425.15,288.27a145.82,145.82,0,1,1-287.86-33.16c.52-2.13,1.07-4.26,1.66-6.36,4.48-3.42,14.52-6.51,28.64-9.08,17.79-3.23,42.13-5.7,70.07-6.95,13.09-.59,27-.88,41.36-.88,32.31,0,62.05,1.54,86,4.19,11.21,1.25,21.06,2.72,29.34,4.38,12.94,2.57,21.87,5.62,25.55,8.93.47,1.69.92,3.42,1.32,5.15A146.15,146.15,0,0,1,425.15,288.27Z" transform="translate(-2.11 -5.77)" fill="#68e1fd"></path><path d="M425.15,288.27a145.82,145.82,0,1,1-287.86-33.16c.52-2.13,1.07-4.26,1.66-6.36,4.48-3.42,14.52-6.51,28.64-9.08,17.79-3.23,42.13-5.7,70.07-6.95,13.09-.59,27-.88,41.36-.88,32.31,0,62.05,1.54,86,4.19,11.21,1.25,21.06,2.72,29.34,4.38,12.94,2.57,21.87,5.62,25.55,8.93.47,1.69.92,3.42,1.32,5.15A146.15,146.15,0,0,1,425.15,288.27Z" transform="translate(-2.11 -5.77)" fill="url(#linear-gradient)"></path><path d="M311.52,331.14c-1.33,1.47-2.65,3-3.86,4.56a11.79,11.79,0,0,0-2.5,8.23c.51,6.62-1.36,12.72-4.49,18.46a4.92,4.92,0,0,1-2.17,1.91c-2,.92-4.23,1.47-6.21,2.43-2.65,1.25-4.12,3.12-3.57,6.43.26,1.43-.66,3.09-1.1,4.67a28,28,0,0,1-5,9.23c-1.58,2.09-3.13,2.79-5.48,1.8a6.15,6.15,0,0,0-1.65-.15c.66,2.35,1.8,4.6,1.76,6.77-.07,3.34-3.35,2.16-5.44,2.86-.3,2,0,4.49-3.38,4.67,2.39,2.35.55,4.71.58,7a7,7,0,0,0,.67,3.75,3.7,3.7,0,0,1,.47,3.83,23.47,23.47,0,0,0-.62,4c-.18.92-.26,2.46-.74,2.61-1,.29-2.61.37-3.34-.26-1.88-1.51-3.82-3-4.3-5.84-.3-1.62-1.91-3-3.05-4.42-.85-1-1.69-1.76-.37-3a2.31,2.31,0,0,0,.48-1.91c-.89-2.1-2.06-4.12-2.91-6.25-1.28-3.16-2.83-6.33-3.45-9.63-1.51-8.2-2.54-16.47-3.75-24.71a5.37,5.37,0,0,1-.15-1.54c1.32-6.77-2.39-11.25-7.1-15.15a4.59,4.59,0,0,1-1.94-4.78c.29-2.21-.48-4.6-1-6.84-.81-3.12-1.84-6.17-2.91-9.19-.22-.66-1-1.1-1.58-1.62-.18.81-.7,1.69-.51,2.43.55,2.24,1.36,4.41,2.06,6.62-.19.14-.37.29-.59.48-2.54-1.4-5.3-2.36-6.55-5.67a26.89,26.89,0,0,0-3.53-5.69c-1.61-2.25-2.46-4.49-1.25-7.28a3.55,3.55,0,0,0-.22-2.87,3.47,3.47,0,0,1,.15-4.49c1-1.39,1.73-3,2.72-4.41,3.57-4.92,2.61-10.18,1.21-15.48-.14-.62-1-1.54-1.47-1.47a2.54,2.54,0,0,0-1.69,1.47c-.51,2-1.47,1.73-2.79.89-1.69-1.07-3.75-1.73-5-3.16a67.19,67.19,0,0,1-5.15-7.58c-.36-.55-.69-1.58-1.1-1.62-3.78-.25-5.88-3.19-8.53-5.14a5.18,5.18,0,0,0-4.78-1,7.86,7.86,0,0,1-5.22-.44,64.6,64.6,0,0,1-9.11-6.36,2.13,2.13,0,0,1-.41-.55,5.27,5.27,0,0,1-.37-2.72,8.57,8.57,0,0,0-1.5-6.66,26,26,0,0,1-4.34-11.91c-.11-.77-1-1.47-1.47-2.2-.33.88-1,1.8-.92,2.64.51,3.5,1.32,7,2,10.44.15.81.22,1.62.33,2.43-.44.37-.88.7-1.32,1a12.08,12.08,0,0,0-.55-2c-.85-1.84-1.77-3.64-2.65-5.48a1.12,1.12,0,0,1-.14-.48c0-2.87.07-5.7,0-8.57,0-1.21-.07-2.83-.81-3.49a4.19,4.19,0,0,1-.92-1.14c17.57-3.23,41.58-5.7,69.19-6.95a6.42,6.42,0,0,1-.66.3c-4.93,1.91-8.31,5.22-7.76,11.17a31.81,31.81,0,0,1-.18,6.47c-.08.7-1.11,1.29-1.73,1.92-.7-.67-1.73-1.25-2-2.06a18.76,18.76,0,0,1-.22-4.12,5.88,5.88,0,0,0-.33-2.54c-1-2-8.05-2.61-9.23-.84-1.51,2.24-3.09,2.31-5.29,1.14a4.47,4.47,0,0,0-3.49-.3c-3.83,1.66-7.47,3.61-8.79,8.16-.7,2.32-2.13,4.42-2.61,6.73a12.58,12.58,0,0,0,.22,6.07,5.58,5.58,0,0,0,5.37,4.23c2.75.07,4.26-1.59,5.77-3.75a10.75,10.75,0,0,1,4.26-3.39c2-.88,2.94.19,2.28,2.36s-1.58,4.48-2.31,6.72c0,0,0,.11,0,.15-.29.88-.48,1.8-.74,2.87,1.88.22,3.39.33,4.93.59a2.91,2.91,0,0,1,2.72,3.45c-.22,2.58-.51,5.19-.59,7.76-.11,3.57,2.47,5.11,5.81,4a7.89,7.89,0,0,1,4.93.33c1.76.74,2.9.67,3.56-1,1.33-3.39,5.33-3.57,7.21-6.33.26-.33,1.25-.15,1.76-.18-.44,2.42-.84,4.63-1.28,6.84l1.1.22c.33-1.25.59-2.5.92-3.79.62-2.46,2-2.87,4-1.29A15.6,15.6,0,0,0,256.89,288c1.91-.11,3.67-1.88,6-2.5-.19.55-.23,1.28-.59,1.65-1.84,1.65-1.29,2.9.44,4.15a3.77,3.77,0,0,1,1.17,1.36c1.81,3.94,5.19,5.08,9.09,5.48,4.66.52,7,2.61,8.19,7.24a3.71,3.71,0,0,0,.56,1.44c1.5,1.8.77,3.34-.41,4.89-.95,1.21-1.8,2.5-2.61,3.64a50.12,50.12,0,0,0,5.63.92,4.75,4.75,0,0,0,2.39-.81c4.22-2.54,6.61-1.44,7.24,3.31,6-1.8,11.43-.08,16.47,2.83C314.24,323.82,314.46,327.87,311.52,331.14Z" transform="translate(-2.11 -5.77)" fill="url(#linear-gradient-2)"></path><path d="M392.73,240.41c-8.16-1.66-17.91-3.13-29-4.38.95-.81,1.84-1.76,2.94-2.76,2.68,2.39,5.88,2,9.34.59,1.39-.59,3.23-.25,4.81-.14,2.36.18,4.64.73,7,.8s3.49,1,3.82,3.09A6.67,6.67,0,0,0,392.73,240.41Z" transform="translate(-2.11 -5.77)" fill="none"></path><path d="M421.4,294.45a50.34,50.34,0,0,1,.7,7.43,18.76,18.76,0,0,1-.88,5.84c-1.84,5.59-2.65,11.47-4.26,17.13a147.3,147.3,0,0,1-12.73,31,15.23,15.23,0,0,1-7.31,6.69c-1.43.66-2.72,1.58-4.08,2.31-.7.37-1.44.63-2.65,1.14.22-1.14.15-1.87.48-2.2,2-2.1,2.35-4.3.77-6.8a1.27,1.27,0,0,1-.18-.74c.59-9-1.36-18.53,4.81-26.58a5.37,5.37,0,0,0,.48-2.94c0-2.06-.44-4.19-.15-6.21a7.44,7.44,0,0,0-2.13-6.22c-2.17-2.35-2.17-4.7-1.1-7.38a12.35,12.35,0,0,0,1.07-3.46c0-.63-.74-1.32-1.22-1.95-.22-.29-.77-.51-.77-.81-.18-1.87-1.29-1.84-2.79-1.73a2.5,2.5,0,0,1-1.95-1.32c-.7-1.76-2-2.57-3.64-2.09-2.58.69-5,1.8-7.54,2.72a7.5,7.5,0,0,1-2.9.69,13.42,13.42,0,0,0-8.35,1.25,3.56,3.56,0,0,1-3.05-.51c-3.42-2.43-6.29-5.22-7.83-9.41-.81-2.32-3.05-4.08-4.49-6.22a9.13,9.13,0,0,1-1.54-3.74,17.51,17.51,0,0,1,1.43-9.53v0c.7-1.55.11-4-.55-5.74-1.06-2.94-1.06-5.7.7-8.16,2.76-3.79,5.85-7.28,8.6-11.07a11.3,11.3,0,0,0,2-4.81c.29-1.84.73-3.2,2.43-4.23a9.81,9.81,0,0,0,1-.7c11.06,1.25,20.81,2.72,29,4.38a8.91,8.91,0,0,0,4.59,3.31c1.44.58,2.54,1.94,3.75,3,.59.52,1,1.33,1.66,1.62a32.46,32.46,0,0,0,3.86,1.14c.26-1.14.48-2.24.81-4,1.14.37,2.5.66,3.71,1.18,2.13,1,4.23,2,6.25,3.09a2.78,2.78,0,0,1,1.4,1.58c.22,1,.44,2,.62,3a139.81,139.81,0,0,1,2.76,19.52c.26,3.78.37,7.57.29,11.36a11.15,11.15,0,0,1-.73,4.74A8,8,0,0,0,421.4,294.45Z" transform="translate(-2.11 -5.77)" fill="url(#linear-gradient-3)"></path><path d="M237.81,263.8c-3.46-2.85-7.12-5.16-11.46-6.14a8.62,8.62,0,0,0-4.1.11,14.39,14.39,0,0,0-3.31,2l.66.94,1.87-.67c2.22-.77,7,.67,8,2.39C231.16,265.48,234.8,266.18,237.81,263.8Z" transform="translate(-2.11 -5.77)" fill="url(#linear-gradient-4)"></path><path d="M240.41,269.07c2.1-.11,4.21-.1,6.3-.35a1.91,1.91,0,0,0,1.09-1.54c-.47-1.86-7.47-3.43-7.94-1.8-.66,2.31-2.45,2-3.87,2.6,0,.3-.09.6-.13.9.88.13,1.76.32,2.64.37A17.86,17.86,0,0,0,240.41,269.07Z" transform="translate(-2.11 -5.77)" fill="url(#linear-gradient-5)"></path><path d="M235,248.41c-.78-.2-1.71-.75-2.29-.5s-1,1.26-1.3,2a4.27,4.27,0,0,0-.35,1.58c-.05,1,0,2,0,3l.71-.28c.84-1.14,1.76-2.22,2.48-3.42A11,11,0,0,0,235,248.41Z" transform="translate(-2.11 -5.77)" fill="url(#linear-gradient-6)"></path><path d="M231,340.57l5.28,6.79C237.88,343.64,236.59,342.32,231,340.57Z" transform="translate(-2.11 -5.77)" fill="url(#linear-gradient-7)"></path><path d="M263.64,274.69c-.64-1.25-1.23-2.93-4.11-2.41,4.35,2.7,2.73,6.06,1.79,9.4C262.4,279.33,265.13,277.57,263.64,274.69Z" transform="translate(-2.11 -5.77)" fill="url(#linear-gradient-8)"></path><path d="M252.82,269.87c.38.15,1.12-.64,1.7-1l-2.65-2.46-2.1,1.59A17.65,17.65,0,0,0,252.82,269.87Z" transform="translate(-2.11 -5.77)" fill="url(#linear-gradient-9)"></path><path d="M282,313.43l1.79,2.19c.85-1,1.72-1.54,1.85-2.25.07-.41-1.11-1.5-1.63-1.44C283.29,312,282.67,312.89,282,313.43Z" transform="translate(-2.11 -5.77)" fill="url(#linear-gradient-10)"></path><path d="M228.62,269.14l3.46,1c.13-.52.27-1,.4-1.56-1.09-.22-2.17-.49-3.27-.6C229.05,267.92,228.82,268.72,228.62,269.14Z" transform="translate(-2.11 -5.77)" fill="url(#linear-gradient-11)"></path><path d="M421.77,252.69a3.17,3.17,0,0,1-.44,1.58l-.11.22c-4.12,6.95-31.43,12.9-70.59,16.25-21,1.76-45.51,2.79-71.61,2.79-5.48,0-10.88,0-16.21-.15-.67,0-1.33,0-2,0-18-.33-34.93-1.14-50.15-2.36-11.06-.88-21.21-1.94-30.22-3.23-23.38-3.27-39.19-7.68-43.16-12.65a4,4,0,0,1-.95-2.42c0-1.36.88-2.69,2.61-3.94,4.48-3.42,14.52-6.51,28.64-9.08,17.79-3.23,42.13-5.7,70.07-6.95,13.09-.59,27-.88,41.36-.88,32.31,0,62.05,1.54,86,4.19,11.21,1.25,21.06,2.72,29.34,4.38,12.94,2.57,21.87,5.62,25.55,8.93A4.52,4.52,0,0,1,421.77,252.69Z" transform="translate(-2.11 -5.77)" fill="#68e1fd"></path><path d="M421.77,252.69a3.17,3.17,0,0,1-.44,1.58l-.11.22c-4.12,6.95-31.43,12.9-70.59,16.25-21,1.76-45.51,2.79-71.61,2.79-5.48,0-10.88,0-16.21-.15-.67,0-1.33,0-2,0-18-.33-34.93-1.14-50.15-2.36-11.06-.88-21.21-1.94-30.22-3.23-23.38-3.27-39.19-7.68-43.16-12.65a4,4,0,0,1-.95-2.42c0-1.36.88-2.69,2.61-3.94,4.48-3.42,14.52-6.51,28.64-9.08,17.79-3.23,42.13-5.7,70.07-6.95,13.09-.59,27-.88,41.36-.88,32.31,0,62.05,1.54,86,4.19,11.21,1.25,21.06,2.72,29.34,4.38,12.94,2.57,21.87,5.62,25.55,8.93A4.52,4.52,0,0,1,421.77,252.69Z" transform="translate(-2.11 -5.77)" fill="url(#linear-gradient-12)"></path><path d="M174.05,224.69c-1.18-6.4-4.46-12.71-10-16.07a53,53,0,0,1,10.65,7.82,16.39,16.39,0,0,0-15.93-24.06,9,9,0,0,0,4.53-1.44A70.39,70.39,0,0,1,158.11,177a77.33,77.33,0,0,0,6.79,12.32l1.52-8.11c-.73,2.69-1.46,5.53-.78,8.24s3.31,5.14,6,4.57c2.8-7.88-3.59-17.55-11.93-18.06a8.93,8.93,0,0,1,9.72,3.87l.05-8.61a18,18,0,0,0,4.75,14.34l17.58-17.15A47.62,47.62,0,0,1,181,180.49l6.85,3.75c-2.39,2.6-6.91-3-9.83-1.06a4,4,0,0,0-1.31,1.83,18.28,18.28,0,0,0-1,11.6,13.6,13.6,0,0,0,5.93-7.46A26,26,0,0,0,180,205.38,75.12,75.12,0,0,1,195.35,185a58,58,0,0,0-18,33.87c5-1,8.88-5,11-9.63s2.78-9.71,3.38-14.73l-.62,6.7a85.44,85.44,0,0,0,17.44-5.94c-4.28,5.3-13.2,5.29-16.82,11-1.45,2.3-1.81,5.23-3.61,7.27-1.38,1.56-3.42,2.37-5.07,3.66-3.49,2.73-4.91,7.47-4.7,11.9s1.81,8.66,3.4,12.8a46.87,46.87,0,0,1-7.4,2.07C173.27,237.94,175.13,231.1,174.05,224.69Z" transform="translate(-2.11 -5.77)" fill="#68e1fd"></path><path d="M404.38,218.73a26.65,26.65,0,0,0-21.7-10.81c-6.12.11-12.68,2.29-18.08-.59-4.9-2.62-6.94-8.41-9.78-13.18s-8.5-9.25-13.51-6.84c-6.88,3.33-5.29,16.21-12.72,18-3.81.93-7.78-2-11.59-1-5.9,1.48-5.92,9.77-8.93,15.06-2.62,4.61-7.79,7-12.14,10s-8.39,8.08-6.91,13.17c1.88,6.43,10.41,7.48,17.11,7.28l54.92-1.68,22-.67c5.69-.17,15.35,1.39,20.64-1C413.47,241.92,409.35,225.6,404.38,218.73Z" transform="translate(-2.11 -5.77)" fill="#68e1fd"></path><path d="M404.38,218.73a26.65,26.65,0,0,0-21.7-10.81c-6.12.11-12.68,2.29-18.08-.59-4.9-2.62-6.94-8.41-9.78-13.18s-8.5-9.25-13.51-6.84c-6.88,3.33-5.29,16.21-12.72,18-3.81.93-7.78-2-11.59-1-5.9,1.48-5.92,9.77-8.93,15.06-2.62,4.61-7.79,7-12.14,10s-8.39,8.08-6.91,13.17c1.88,6.43,10.41,7.48,17.11,7.28l54.92-1.68,22-.67c5.69-.17,15.35,1.39,20.64-1C413.47,241.92,409.35,225.6,404.38,218.73Z" transform="translate(-2.11 -5.77)" fill="url(#linear-gradient-13)"></path><path d="M329.89,243.5l5.87-100.06h10l5.87,102.48S338.17,250.06,329.89,243.5Z" transform="translate(-2.11 -5.77)" fill="#68e1fd"></path><polygon points="185.11 240.49 244.63 240.49 244.63 202.71 185.11 192.36 185.11 240.49" fill="#68e1fd"></polygon><polygon points="185.11 240.49 244.63 240.49 244.63 205.47 185.11 195.12 185.11 240.49" fill="url(#linear-gradient-14)"></polygon><path d="M299.87,243.5l5.87-100.06h10l5.87,102.48S308.15,250.06,299.87,243.5Z" transform="translate(-2.11 -5.77)" fill="#68e1fd"></path><path d="M299.87,243.5l5.87-100.06h10l5.87,102.48S308.15,250.06,299.87,243.5Z" transform="translate(-2.11 -5.77)" fill="url(#linear-gradient-15)"></path><path d="M330.15,243.5,336,143.44h10l5.87,102.48S338.43,250.06,330.15,243.5Z" transform="translate(-2.11 -5.77)" fill="url(#linear-gradient-16)"></path><path d="M306.77,133.91c1.72-3.22,4.48-6.17,4.55-9.82-6.13-1.94-12.3-4.36-17.05-8.71s-7.83-11-6.41-17.25c2-8.7,11.11-13.34,18.77-17.92,2.69-1.61,5.42-3.47,6.86-6.26,2.68-5.19,0-11.46.38-17.29.42-7.14,5.48-13.38,11.65-17,8.57-5,18.9-5.69,28.82-6.24L419,29.82c6.5-.36,14.31-.08,17.72,5.46,1.95,3.16,1.77,7.29.4,10.74s-3.8,6.37-6.24,9.17Q424.91,62,418.51,68.43c-5,5-10.21,9.82-16.44,13.06-15.09,7.86-33.48,5.29-49.72,10.37-3.75,1.18-7.89,3.38-8.49,7.27-.79,5.15,5.08,8.89,6.31,14,1.12,4.6-2,9.39-6.12,11.71s-9,2.69-13.75,2.89-9.6.3-13.95,2.16a5.37,5.37,0,0,0-3.24,2.88c-1.15,3.51,4.1,7.38,2,10.4-1.45,2.05-5.84,1.46-7.6,0C304.77,141,305.32,136.64,306.77,133.91Z" transform="translate(-2.11 -5.77)" fill="url(#linear-gradient-17)"></path><path d="M336.79,133.91c1.72-3.22,4.48-6.17,4.55-9.82-6.14-1.94-12.3-4.36-17-8.71s-7.83-11-6.41-17.25c2-8.7,11.11-13.34,18.76-17.92,2.7-1.61,5.43-3.47,6.87-6.26,2.68-5.19,0-11.46.38-17.29.42-7.14,5.47-13.38,11.65-17,8.56-5,18.9-5.69,28.82-6.24L449,29.82c6.5-.36,14.31-.08,17.72,5.46,2,3.16,1.77,7.29.4,10.74s-3.8,6.37-6.24,9.17Q454.93,62,448.53,68.43c-5,5-10.21,9.82-16.44,13.06-15.09,7.86-33.48,5.29-49.72,10.37-3.75,1.18-7.89,3.38-8.49,7.27-.79,5.15,5.08,8.89,6.31,14,1.12,4.6-2,9.39-6.12,11.71s-9,2.69-13.76,2.89-9.59.3-13.94,2.16a5.37,5.37,0,0,0-3.24,2.88c-1.15,3.51,4.1,7.38,2,10.4-1.45,2.05-5.84,1.46-7.6,0C334.79,141,335.34,136.64,336.79,133.91Z" transform="translate(-2.11 -5.77)" fill="url(#linear-gradient-18)"></path><polygon points="247.39 239.11 297.76 239.11 297.76 165.27 246.7 165.27 247.39 239.11" fill="#68e1fd"></polygon><polygon points="247.39 239.11 297.76 239.11 297.76 165.27 246.7 165.27 247.39 239.11" fill="url(#linear-gradient-19)"></polygon><rect x="255.84" y="177.35" width="8.11" height="8.11" fill="url(#linear-gradient-20)"></rect><rect x="268.43" y="177.35" width="8.11" height="8.11" fill="url(#linear-gradient-21)"></rect><rect x="281.03" y="177.35" width="8.11" height="8.11" fill="url(#linear-gradient-22)"></rect><rect x="255.84" y="190.98" width="8.11" height="8.11" fill="url(#linear-gradient-23)"></rect><rect x="268.43" y="190.98" width="8.11" height="8.11" fill="url(#linear-gradient-24)"></rect><rect x="281.03" y="190.98" width="8.11" height="8.11" fill="url(#linear-gradient-25)"></rect><rect x="255.84" y="204.61" width="8.11" height="8.11" fill="url(#linear-gradient-26)"></rect><rect x="268.43" y="204.61" width="8.11" height="8.11" fill="url(#linear-gradient-27)"></rect><rect x="281.03" y="204.61" width="8.11" height="8.11" fill="url(#linear-gradient-28)"></rect><rect x="255.84" y="218.24" width="8.11" height="8.11" fill="url(#linear-gradient-29)"></rect><rect x="268.43" y="218.24" width="8.11" height="8.11" fill="url(#linear-gradient-30)"></rect><rect x="281.03" y="218.24" width="8.11" height="8.11" fill="url(#linear-gradient-31)"></rect><polygon points="295.18 248.25 213.4 248.25 213.4 225.48 228.67 225.48 264.12 202.71 263.95 225.48 294.92 203.23 295.18 225.48 295.18 248.25" fill="#68e1fd"></polygon><polygon points="295.18 248.25 213.4 248.25 213.4 225.48 228.67 225.48 264.12 202.71 263.95 225.48 294.92 203.23 295.18 225.48 295.18 248.25" fill="url(#linear-gradient-32)"></polygon><rect x="239.28" y="232.73" width="12.42" height="6.73" fill="url(#linear-gradient-33)"></rect><rect x="268.39" y="232.73" width="12.42" height="6.73" fill="url(#linear-gradient-34)"></rect><polygon points="295.52 247.05 328.13 247.05 328.13 226.35 295.52 220.68 295.52 247.05" fill="#68e1fd"></polygon><polygon points="295.52 247.05 328.13 247.05 328.13 227.86 295.52 222.19 295.52 247.05" fill="url(#linear-gradient-35)"></polygon><polygon points="327.95 247.05 360.56 247.05 360.56 226.35 327.95 220.68 327.95 247.05" fill="#68e1fd"></polygon><polygon points="327.95 247.05 360.56 247.05 360.56 227.86 327.95 222.19 327.95 247.05" fill="url(#linear-gradient-36)"></polygon><rect x="299.57" y="228.33" width="16.04" height="6.73" fill="#68e1fd"></rect><path d="M152.34,226.69c-.52-7.13-2.29-14.29-6.17-20.29a14.67,14.67,0,0,1,6.34,11.15q1.35-19.67,3.05-39.29c2.16,8.52-2.06,17.4-1.49,26.17a77.65,77.65,0,0,1,9.38-7.69c-.49,2.72-3.56,4-5.49,6-2.85,2.89-3.2,7.33-3.4,11.38-.49,10.26-1,20.7,1.57,30.66a3.73,3.73,0,0,1,.16,1.95,2.66,2.66,0,0,1-4.23.94c-1-1.15-.09-4.42,0-5.72A100.45,100.45,0,0,0,152.34,226.69Z" transform="translate(-2.11 -5.77)" fill="#68e1fd"></path><path d="M395.51,234.54a12.36,12.36,0,0,0-3.93-3c-5.07-2.7-12.77-2.42-15,2.87a28.74,28.74,0,0,1,5-7.7,12.16,12.16,0,0,1-6-3.28,17.83,17.83,0,0,1,13.73,6.32l.23-6a8.56,8.56,0,0,0,8.28,8.42,57.42,57.42,0,0,0-2.8-10.94c-.68-1.87-1.54-3.82-3.2-4.93a9.28,9.28,0,0,0-4.55-1.23c-6.51-.5-14.14,1.05-17.16,6.83,4.44-3.52,4.34-11.33-.18-14.74a14.79,14.79,0,0,0,15.37,5.33,11.43,11.43,0,0,0-10.31-9l6.83.22-1.27-6.9c1.52,5.56,3.8,11.93,9.29,13.66a10.28,10.28,0,0,1,2.51.9c2.23,1.41,2.08,5,4.12,6.62a81.32,81.32,0,0,0,4-16.12,12.76,12.76,0,0,0,0-4.81c-1.15-4.69-6.86-7.26-7.78-12l6.61,8a13.22,13.22,0,0,0,3.68-6.62c-.41,1.88-1.54,3.53-2,5.4s0,4.25,1.74,5c3.23,1.31,6.15-4,9.53-3.14A16.29,16.29,0,0,0,401,208l12.27-1.07c-5.11.41-11.17,1.45-13.28,6.13a7.31,7.31,0,0,0,0,6,2.88,2.88,0,0,0,.78,1.08c1.81,1.4,3.93-1.37,4.56-3.58-2.29,1.21-.49,5.19,2.09,5.37s4.74-1.8,6.56-3.64l13.72-13.93a30.5,30.5,0,0,1-8,11.85l3.7,3.77c-2,.17-3.26-2.82-5.29-2.65-1.45.13-2.17,1.76-3,2.94-3.06,4.2-9.43,3.48-14.5,2.32a56.18,56.18,0,0,0,2,13.76l6.95-5.61c-3.68,2.76-6.85,6.43-8.1,10.85s-.29,9.64,3.14,12.7c0-.15-7.61-1.27-8.31-1.42C396.4,246.7,400.23,240.34,395.51,234.54Z" transform="translate(-2.11 -5.77)" fill="#68e1fd"></path></svg>