<svg width="532" height="95" viewBox="0 0 532 95" fill="none" xmlns="http://www.w3.org/2000/svg">
<path d="M0.0664353 34.3536L13.1292 33.2033C12.9704 38.3933 14.8149 42.8042 20.6991 45.546C26.3581 48.1936 28.8229 46.6205 29.759 44.6099C31.2564 41.4083 28.8709 38.7496 22.0617 32.9319C15.3263 27.1492 9.47161 19.8729 14.141 9.89532C18.8417 -0.157902 30.0489 -1.99685 39.0663 2.2183C47.6314 6.22482 52.4171 13.455 52.6276 22.8971L39.8233 24.0769C39.7771 19.5183 38.3998 16.0602 33.6326 13.8298C29.9104 12.0887 27.1705 13.0802 26.2011 15.1647C25.0933 17.5483 25.5863 19.7805 32.5543 26.0322C39.334 32.1084 46.9058 39.0081 41.7509 50.0344C37.0483 60.0876 26.2196 62.2847 14.8998 56.9895C3.94371 51.8696 -0.616704 43.3821 0.0664353 34.3536Z" fill="#303030"/>
<path d="M97.3973 42.6377L83.6717 37.1098L66.9052 78.748L54.7047 73.835L71.4693 32.1967L57.7419 26.6707L62.4704 14.9262L102.126 30.8932L97.3973 42.6377Z" fill="#303030"/>
<path d="M122.014 73.3659L115.805 72.6717L113.706 91.4636L100.632 90.0031L107.022 32.8115L129.892 35.3668C132.47 35.6487 134.966 36.437 137.238 37.6864C139.51 38.9358 141.513 40.6217 143.131 42.6473C144.75 44.6729 145.952 46.9983 146.669 49.4899C147.386 51.9815 147.604 54.5902 147.311 57.1663C146.524 64.1934 141.565 70.0906 134.916 72.5739L144.744 94.9328L130.692 93.3634L122.014 73.3659ZM117.083 61.2337L126.887 62.3286C130.481 62.7311 133.779 59.873 134.244 55.7059C134.709 51.5387 132.125 48.0233 128.521 47.6227L118.717 46.5278L117.083 61.2337Z" fill="#303030"/>
<path d="M191.211 79.0931L192.145 91.7182L156.07 94.3898L151.823 36.9988L187.487 34.3567L188.423 46.9837L165.875 48.6454L166.579 58.1558L187.073 56.6381L187.996 69.1008L167.502 70.6184L168.255 80.7843L191.211 79.0931Z" fill="#303030"/>
<path d="M233.39 74.4309L212.479 78.8621L211.537 88.306L197.468 91.2823L204.687 30.9297L221.093 27.4549L252.158 79.7059L238.087 82.6766L233.39 74.4309ZM226.974 63.1831L216.001 43.9038L213.786 65.9692L226.974 63.1831Z" fill="#303030"/>
<path d="M313.358 64.2317L300.559 67.2708L292.825 34.7183L283.992 61.9128L282.552 62.2543L262.427 41.9448L270.161 74.4973L257.365 77.5382L244.071 21.5485L256.87 18.5076L277.968 39.768L287.255 11.2811L300.052 8.24201L313.358 64.2317Z" fill="#303030"/>
<path d="M337.43 29.8294C337.484 12.8949 350.104 -0.0552127 367.45 0.000177013C377.891 0.0315645 387.082 5.24005 392.07 13.3953L380.704 19.9368C378.171 15.489 373.247 12.8432 367.411 12.8247C357.217 12.7915 350.619 19.5952 350.587 29.8718C350.556 40.1485 357.108 46.9909 367.304 47.0242C373.14 47.0426 378.164 44.4264 380.644 39.9952L391.969 46.6088C387.01 54.7326 377.785 59.882 367.263 59.8487C349.915 59.7933 337.377 46.7657 337.43 29.8294Z" fill="#303030"/>
<path d="M430.621 53.5861L428.291 66.0322L395.161 59.8285L405.752 3.26273L418.676 5.68325L410.417 49.8104L430.621 53.5861Z" fill="#303030"/>
<path d="M437.174 49.3154L449.836 12.4609L462.277 16.7352L449.989 52.5003C448.573 56.6213 449.315 60.7884 455.923 63.0594C462.531 65.3304 465.677 62.5055 467.094 58.3771L479.383 22.612L491.823 26.8862L479.159 63.7407C475.153 75.4021 463.73 79.3015 451.756 75.1879C439.783 71.0743 433.167 60.9786 437.174 49.3154Z" fill="#303030"/>
<path d="M522.93 85.0159C518.9 94.3804 508.64 97.2127 499.201 93.1397L477.001 83.5997L499.757 30.7414L520.447 39.648C529.658 43.6139 534.566 52.7975 530.633 61.935C528.748 66.3145 525.515 69.0396 521.573 70.297C524.428 74.4715 525.238 79.6541 522.93 85.0159ZM511.239 78.9082C512.508 75.9633 511.454 73 508.433 71.7076L498.315 67.3521L493.96 77.47L504.077 81.8254C507.096 83.1234 509.971 81.8531 511.239 78.9082ZM506.961 47.2622L502.931 56.625L511.538 60.3305C514.258 61.5011 516.991 60.3508 518.161 57.633C519.332 54.9153 518.364 52.1698 515.576 50.9678L506.961 47.2622Z" fill="#303030"/>
</svg>
