<svg width="532" height="95" xmlns="http://www.w3.org/2000/svg"><path d="M.0664353 34.3536L13.1292 33.2033c-.1588 5.19 1.6857 9.6009 7.5699 12.3427 5.659 2.6476 8.1238 1.0745 9.0599-.9361 1.4974-3.2016-.8881-5.8603-7.6973-11.678-6.7354-5.7827-12.59009-13.059-7.9207-23.03658C18.8417-.157902 30.0489-1.99685 39.0663 2.2183c8.5651 4.00652 13.3508 11.2367 13.5613 20.6788l-12.8043 1.1798c-.0462-4.5586-1.4235-8.0167-6.1907-10.2471-3.7222-1.7411-6.4621-.7496-7.4315 1.3349-1.1078 2.3836-.6148 4.6158 6.3532 10.8675 6.7797 6.0762 14.3515 12.9759 9.1966 24.0022-4.7026 10.0532-15.5313 12.2503-26.8511 6.9551C3.94371 51.8696-.616704 43.3821.0664353 34.3536zM97.3973 42.6377l-13.7256-5.5279L66.9052 78.748l-12.2005-4.913 16.7646-41.6383-13.7274-5.526 4.7285-11.7445 39.6556 15.967-4.7287 11.7445zM122.014 73.3659l-6.209-.6942-2.099 18.7919-13.074-1.4605 6.39-57.1916 22.87 2.5553c2.578.2819 5.074 1.0702 7.346 2.3196 2.272 1.2494 4.275 2.9353 5.893 4.9609 1.619 2.0256 2.821 4.351 3.538 6.8426.717 2.4916.935 5.1003.642 7.6764-.787 7.0271-5.746 12.9243-12.395 15.4076l9.828 22.3589-14.052-1.5694-8.678-19.9975zm-4.931-12.1322l9.804 1.0949c3.594.4025 6.892-2.4556 7.357-6.6227.465-4.1672-2.119-7.6826-5.723-8.0832l-9.804-1.0949-1.634 14.7059zM191.211 79.0931l.934 12.6251-36.075 2.6716-4.247-57.391 35.664-2.6421.936 12.627-22.548 1.6617.704 9.5104 20.494-1.5177.923 12.4627-20.494 1.5176.753 10.1659 22.956-1.6912zM233.39 74.4309l-20.911 4.4312-.942 9.4439-14.069 2.9763 7.219-60.3526 16.406-3.4748 31.065 52.251-14.071 2.9707-4.697-8.2457zm-6.416-11.2478l-10.973-19.2793-2.215 22.0654 13.188-2.7861zM313.358 64.2317l-12.799 3.0391-7.734-32.5525-8.833 27.1945-1.44.3415-20.125-20.3095 7.734 32.5525-12.796 3.0409-13.294-55.9897 12.799-3.0409 21.098 21.2604 9.287-28.4869 12.797-3.03909 13.306 55.98969zM337.43 29.8294c.054-16.9345 12.674-29.8846127 30.02-29.82922299C377.891.0315645 387.082 5.24005 392.07 13.3953l-11.366 6.5415c-2.533-4.4478-7.457-7.0936-13.293-7.1121-10.194-.0332-16.792 6.7705-16.824 17.0471-.031 10.2767 6.521 17.1191 16.717 17.1524 5.836.0184 10.86-2.5978 13.34-7.029l11.325 6.6136c-4.959 8.1238-14.184 13.2732-24.706 13.2399-17.348-.0554-29.886-13.083-29.833-30.0193zM430.621 53.5861l-2.33 12.4461-33.13-6.2037 10.591-56.56577 12.924 2.42052-8.259 44.12715 20.204 3.7757zM437.174 49.3154l12.662-36.8545 12.441 4.2743-12.288 35.7651c-1.416 4.121-.674 8.2881 5.934 10.5591 6.608 2.271 9.754-.5539 11.171-4.6823l12.289-35.7651 12.44 4.2742-12.664 36.8545c-4.006 11.6614-15.429 15.5608-27.403 11.4472-11.973-4.1136-18.589-14.2093-14.582-25.8725zM522.93 85.0159c-4.03 9.3645-14.29 12.1968-23.729 8.1238l-22.2-9.54 22.756-52.8583 20.69 8.9066c9.211 3.9659 14.119 13.1495 10.186 22.287-1.885 4.3795-5.118 7.1046-9.06 8.362 2.855 4.1745 3.665 9.3571 1.357 14.7189zm-11.691-6.1077c1.269-2.9449.215-5.9082-2.806-7.2006l-10.118-4.3555L493.96 77.47l10.117 4.3554c3.019 1.298 5.894.0277 7.162-2.9172zm-4.278-31.646l-4.03 9.3628 8.607 3.7055c2.72 1.1706 5.453.0203 6.623-2.6975 1.171-2.7177.203-5.4632-2.585-6.6652l-8.615-3.7056z"/></svg>