<?xml version="1.0" encoding="utf-8"?>
<!-- Generator: Adobe Illustrator 25.3.1, SVG Export Plug-In . SVG Version: 6.00 Build 0)  -->
<svg version="1.1" id="Layer_1" xmlns="http://www.w3.org/2000/svg" xmlns:xlink="http://www.w3.org/1999/xlink" x="0px" y="0px"
	 viewBox="0 0 209 40" style="enable-background:new 0 0 209 40;" xml:space="preserve">
<style type="text/css">
	.st0{fill:none;stroke:#333333;}
	.st1{fill:#FFFFFF;stroke:#231F20;stroke-width:0.5;stroke-linecap:round;stroke-linejoin:round;}
	.st2{fill:#FFFFFF;}
</style>
<path d="M0,5c0-2.8,2.2-5,5-5h199c2.8,0,5,2.2,5,5v30c0,2.8-2.2,5-5,5H5c-2.8,0-5-2.2-5-5V5z"/>
<line class="st0" x1="40.5" y1="0" x2="40.5" y2="40"/>
<g>
	<polygon class="st1" points="20,20.9 20,7.9 30.3,14.4 	"/>
	<polygon class="st1" points="20,20.9 20,7.9 9.8,14.3 	"/>
	<polygon class="st1" points="20,20.8 30.3,14.3 30.3,25 20,31.5 	"/>
	<polygon class="st1" points="20,20.8 9.8,14.3 9.8,25 20,31.5 	"/>
</g>
<g>
	<path class="st2" d="M50.5,15.1v10.8h-1.4V15.1H50.5z"/>
	<path class="st2" d="M53,20.3c0-0.8,0-1.5-0.1-2.1h1.2l0.1,1.3h0c0.4-0.7,1.3-1.5,2.6-1.5c1.1,0,2.7,0.6,2.7,3.3v4.6h-1.4v-4.5
		c0-1.2-0.5-2.3-1.8-2.3c-0.9,0-1.6,0.7-1.9,1.4c-0.1,0.2-0.1,0.4-0.1,0.7v4.7H53V20.3z"/>
	<path class="st2" d="M67.4,25.6c-0.4,0.2-1.2,0.4-2.2,0.4c-2.3,0-3.9-1.6-3.9-4c0-2.4,1.6-4.1,4.2-4.1c0.8,0,1.6,0.2,2,0.4
		l-0.3,1.1c-0.3-0.2-0.9-0.4-1.6-0.4c-1.8,0-2.7,1.3-2.7,2.9c0,1.8,1.2,2.9,2.7,2.9c0.8,0,1.3-0.2,1.7-0.4L67.4,25.6z"/>
	<path class="st2" d="M75.6,23.8c0,0.8,0,1.5,0.1,2.1h-1.2l-0.1-1.3h0c-0.4,0.6-1.2,1.4-2.6,1.4c-1.2,0-2.7-0.7-2.7-3.4v-4.5h1.4
		v4.3c0,1.5,0.4,2.5,1.7,2.5c0.9,0,1.6-0.7,1.9-1.3c0.1-0.2,0.1-0.5,0.1-0.7v-4.8h1.4V23.8z"/>
	<path class="st2" d="M77.8,25.9c0-0.5,0.1-1.3,0.1-2v-9.4h1.4v4.9h0c0.5-0.9,1.4-1.4,2.6-1.4c1.9,0,3.3,1.6,3.3,4
		c0,2.8-1.7,4.1-3.5,4.1c-1.1,0-2-0.4-2.6-1.5h0L79,25.9H77.8z M79.3,22.8c0,0.2,0,0.4,0.1,0.5c0.3,1,1.1,1.6,2.1,1.6
		c1.5,0,2.4-1.2,2.4-3c0-1.6-0.8-2.9-2.3-2.9c-1,0-1.9,0.7-2.1,1.7c0,0.2-0.1,0.4-0.1,0.6V22.8z"/>
	<path class="st2" d="M91.3,25.9l-0.1-1h0c-0.4,0.6-1.3,1.2-2.4,1.2c-1.6,0-2.4-1.1-2.4-2.2c0-1.9,1.7-2.9,4.7-2.9v-0.2
		c0-0.6-0.2-1.8-1.8-1.8c-0.7,0-1.5,0.2-2,0.6l-0.3-0.9c0.6-0.4,1.6-0.7,2.5-0.7c2.4,0,2.9,1.6,2.9,3.2v2.9c0,0.7,0,1.3,0.1,1.9
		H91.3z M91.1,22c-1.5,0-3.3,0.2-3.3,1.7c0,0.9,0.6,1.3,1.3,1.3c1,0,1.6-0.6,1.9-1.3c0-0.1,0.1-0.3,0.1-0.4V22z"/>
	<path class="st2" d="M96.3,15.9v2.2h2v1.1h-2v4.2c0,1,0.3,1.5,1.1,1.5c0.4,0,0.6,0,0.8-0.1l0.1,1.1C98,26,97.6,26.1,97,26.1
		c-0.7,0-1.2-0.2-1.5-0.6c-0.4-0.4-0.5-1.1-0.5-2v-4.2h-1.2v-1.1H95v-1.9L96.3,15.9z"/>
	<path class="st2" d="M100.6,22.3c0,1.9,1.2,2.7,2.7,2.7c1,0,1.6-0.2,2.1-0.4l0.2,1c-0.5,0.2-1.3,0.5-2.6,0.5
		c-2.4,0-3.8-1.6-3.8-3.9s1.4-4.2,3.6-4.2c2.5,0,3.2,2.2,3.2,3.6c0,0.3,0,0.5,0,0.7H100.6z M104.8,21.3c0-0.9-0.4-2.3-2-2.3
		c-1.4,0-2,1.3-2.2,2.3H104.8z"/>
	<path class="st2" d="M114.5,14.5v9.4c0,0.7,0,1.5,0.1,2h-1.3l-0.1-1.3h0c-0.4,0.9-1.4,1.5-2.6,1.5c-1.9,0-3.3-1.6-3.3-3.9
		c0-2.6,1.6-4.2,3.5-4.2c1.2,0,2,0.6,2.3,1.2h0v-4.6H114.5z M113.1,21.3c0-0.2,0-0.4-0.1-0.6c-0.2-0.9-1-1.6-2-1.6
		c-1.5,0-2.3,1.3-2.3,3c0,1.6,0.8,2.9,2.3,2.9c0.9,0,1.8-0.6,2.1-1.7c0-0.2,0.1-0.4,0.1-0.6V21.3z"/>
	<path class="st2" d="M120.2,25.9c0-0.5,0.1-1.3,0.1-2v-9.4h1.4v4.9h0c0.5-0.9,1.4-1.4,2.6-1.4c1.9,0,3.3,1.6,3.3,4
		c0,2.8-1.7,4.1-3.5,4.1c-1.1,0-2-0.4-2.6-1.5h0l-0.1,1.3H120.2z M121.7,22.8c0,0.2,0,0.4,0.1,0.5c0.3,1,1.1,1.6,2.1,1.6
		c1.5,0,2.4-1.2,2.4-3c0-1.6-0.8-2.9-2.3-2.9c-1,0-1.9,0.7-2.1,1.7c0,0.2-0.1,0.4-0.1,0.6V22.8z"/>
	<path class="st2" d="M129.8,18.2l1.7,4.6c0.2,0.5,0.4,1.1,0.5,1.6h0c0.1-0.5,0.3-1.1,0.5-1.6l1.5-4.5h1.5l-2.1,5.5
		c-1,2.7-1.7,4-2.7,4.9c-0.7,0.6-1.4,0.8-1.7,0.9l-0.4-1.2c0.4-0.1,0.8-0.3,1.2-0.7c0.4-0.3,0.9-0.8,1.2-1.6
		c0.1-0.1,0.1-0.3,0.1-0.3s0-0.2-0.1-0.4l-2.9-7.1H129.8z"/>
</g>
<g>
	<path class="st2" d="M141.9,22.8c0.1,1,1.1,1.5,2.2,1.5c0.8,0,1.5-0.1,2.2-0.3l0.3,1.6c-0.8,0.3-1.8,0.5-2.8,0.5
		c-2.7,0-4.2-1.5-4.2-4c0-2,1.2-4.2,4-4.2c2.5,0,3.5,2,3.5,3.9c0,0.4,0,0.8-0.1,1H141.9z M144.8,21.1c0-0.6-0.3-1.6-1.4-1.6
		c-1,0-1.4,0.9-1.5,1.6H144.8z"/>
	<path class="st2" d="M148.5,20.6c0-1,0-1.8-0.1-2.5h2.1l0.1,1.1h0c0.3-0.5,1.1-1.2,2.4-1.2c1.6,0,2.8,1.1,2.8,3.4v4.6h-2.4v-4.3
		c0-1-0.4-1.7-1.2-1.7c-0.7,0-1.1,0.5-1.2,0.9c-0.1,0.1-0.1,0.4-0.1,0.6v4.5h-2.4V20.6z"/>
	<path class="st2" d="M160.5,25.9L157,15.1h2.7l1.3,4.6c0.4,1.3,0.7,2.5,1,3.9h0c0.3-1.3,0.6-2.6,1-3.8l1.4-4.6h2.6l-3.6,10.8H160.5
		z"/>
	<path class="st2" d="M170.1,15.9c0,0.7-0.5,1.2-1.3,1.2c-0.8,0-1.3-0.5-1.3-1.2c0-0.7,0.5-1.2,1.3-1.2S170.1,15.2,170.1,15.9z
		 M167.6,25.9v-7.8h2.4v7.8H167.6z"/>
	<path class="st2" d="M172,23.8c0.4,0.3,1.4,0.6,2.1,0.6c0.7,0,1-0.3,1-0.7s-0.2-0.6-1.2-0.9c-1.6-0.5-2.2-1.4-2.2-2.4
		c0-1.5,1.2-2.6,3.2-2.6c0.9,0,1.7,0.2,2.2,0.4l-0.4,1.7c-0.4-0.2-1-0.4-1.7-0.4c-0.6,0-0.9,0.2-0.9,0.6c0,0.4,0.3,0.6,1.3,0.9
		c1.5,0.5,2.1,1.3,2.1,2.4c0,1.5-1.2,2.5-3.4,2.5c-1,0-1.9-0.2-2.5-0.5L172,23.8z"/>
	<path class="st2" d="M181.4,15.9c0,0.7-0.5,1.2-1.3,1.2c-0.8,0-1.3-0.5-1.3-1.2c0-0.7,0.5-1.2,1.3-1.2S181.4,15.2,181.4,15.9z
		 M178.9,25.9v-7.8h2.4v7.8H178.9z"/>
	<path class="st2" d="M191,21.9c0,2.9-2,4.2-4.1,4.2c-2.3,0-4-1.5-4-4c0-2.5,1.7-4.1,4.2-4.1C189.4,17.9,191,19.6,191,21.9z
		 M185.4,22c0,1.3,0.6,2.4,1.6,2.4c0.9,0,1.6-0.9,1.6-2.4c0-1.2-0.4-2.4-1.6-2.4C185.8,19.6,185.4,20.8,185.4,22z"/>
	<path class="st2" d="M192.5,20.6c0-1,0-1.8-0.1-2.5h2.1l0.1,1.1h0c0.3-0.5,1.1-1.2,2.4-1.2c1.6,0,2.8,1.1,2.8,3.4v4.6h-2.4v-4.3
		c0-1-0.4-1.7-1.2-1.7c-0.7,0-1.1,0.5-1.2,0.9c-0.1,0.1-0.1,0.4-0.1,0.6v4.5h-2.4V20.6z"/>
</g>
</svg>
